<svg width="14" height="14" viewBox="0 0 14 14" fill="none" xmlns="http://www.w3.org/2000/svg">
<path d="M11.6143 1H2.38544C1.53562 1 0.827301 1.66661 1.03726 2.45042C1.26087 3.281 1.67265 4.05488 2.24369 4.71775C2.81472 5.38061 3.53117 5.91638 4.34273 6.28744C4.97568 6.57606 5.46173 7.14304 5.46173 7.81111V12.2679C5.4618 12.3927 5.49535 12.5154 5.55921 12.6244C5.62306 12.7334 5.71509 12.825 5.82657 12.8907C5.93806 12.9563 6.06529 12.9936 6.1962 12.9993C6.32711 13.0049 6.45735 12.9785 6.57458 12.9227L8.11272 12.1902C8.24045 12.1294 8.34789 12.036 8.423 11.9203C8.49812 11.8046 8.53794 11.6713 8.53802 11.5353V7.81111C8.53802 7.14304 9.02407 6.57606 9.65625 6.28744C10.4681 5.91655 11.1848 5.38085 11.7562 4.71798C12.3275 4.05511 12.7395 3.28113 12.9633 2.45042C13.1717 1.66661 12.4626 1 11.6143 1Z" stroke="#093044" stroke-width="2"/>
</svg>
