<svg width="124" height="80" viewBox="0 0 124 80" fill="none" xmlns="http://www.w3.org/2000/svg">
<path d="M37.878 81.1253C36.7802 81.1253 35.7765 81.2128 34.7905 81.1078C31.6118 80.7723 30.0459 78.2282 31.288 75.3282C31.7825 74.1758 32.4624 73.0497 33.2718 72.0869C36.2268 68.5538 36.5153 64.478 35.6647 60.2681C35.3733 58.821 34.4667 57.4148 33.5661 56.1894C32.742 55.0691 31.5146 54.2493 30.5198 53.2427C29.4808 52.1866 28.3565 51.1655 27.5412 49.9518C26.0342 47.7082 26.4169 45.4851 28.3859 43.6646C30.1754 42.0074 32.4683 41.9111 34.6198 43.472C35.3026 43.968 35.8913 44.5982 36.4888 45.2021C37.0362 45.7564 37.516 46.3749 38.0575 46.938C40.9272 49.9168 43.1965 50.2698 46.8256 48.2976C47.8234 47.7549 48.7505 47.0605 49.7924 46.6229C50.955 46.1328 52.1853 45.6747 53.4244 45.5201C55.108 45.31 56.5119 46.054 57.3184 47.5799C58.0983 49.059 57.754 50.5382 56.7327 51.7315C55.9674 52.6242 54.9844 53.3886 53.9719 54.0071C52.7651 54.7423 51.4318 55.2791 50.1397 55.8714C44.8389 58.3017 42.9552 62.7859 42.5666 68.1804C42.5608 68.2504 42.5666 68.3204 42.5696 68.3933C42.6962 70.7244 43.8117 72.3495 45.716 72.9797C47.5084 73.5748 49.5422 72.8688 50.9108 70.9637C51.7291 69.8258 52.2913 68.5071 52.9653 67.2672C53.7717 65.7792 54.484 64.2271 55.4023 62.8092C56.821 60.624 58.7782 59.0165 61.2447 58.0449C63.1726 57.2864 65.1269 57.1697 67.096 57.8057C68.5176 58.2667 69.8891 58.8793 71.3284 59.2732C72.4086 59.5708 73.5741 59.8363 74.672 59.7458C77.5093 59.5095 78.8926 56.7496 77.5328 54.2726C76.8176 52.9743 75.6727 52.1487 74.3423 51.571C73.1032 51.0342 71.817 50.6053 70.5926 50.0364C67.4874 48.5951 66.4072 46.5646 66.8664 43.2153C66.9812 42.3779 67.1342 41.5348 67.1313 40.6945C67.1195 37.9813 65.5066 36.2249 62.7693 36.2949C61.2506 36.3329 59.7142 36.8551 58.2396 37.3248C56.6856 37.8179 55.2139 38.5648 53.6687 39.0928C51.2846 39.9097 48.8152 40.2073 46.2987 39.9068C40.8331 39.2562 37.5071 35.1425 38.137 29.7189C38.5167 26.4484 39.6852 23.3908 41.4364 20.6192C42.599 18.7782 43.9794 17.0394 45.4658 15.4435C47.3083 13.4626 49.7483 12.4327 52.4149 12.0038C54.5164 11.6654 56.5531 11.89 58.3426 13.1475C61.2212 15.1664 61.2359 18.8745 58.2543 20.733C56.9593 21.5382 55.3758 21.8971 53.9101 22.4222C52.9093 22.7811 51.8674 23.0349 50.8785 23.4229C50.2898 23.6534 49.7306 23.9947 49.2244 24.3769C47.2671 25.8532 46.6549 27.9538 47.6085 29.7627C48.5121 31.4752 50.4841 32.1842 52.8093 31.4898C54.0278 31.1251 55.2139 30.6087 56.353 30.0369C58.8548 28.7853 61.4478 27.8604 64.2292 27.4666C64.3705 27.4462 64.5088 27.4141 64.6501 27.3878C69.6537 26.4075 70.4601 25.5585 71.1695 20.52C71.2489 19.9628 71.3255 19.3997 71.452 18.8512C72.2026 15.5748 74.6543 14.1569 77.8713 15.2364C79.1428 15.6653 80.3554 16.2984 81.5386 16.9402C87.8637 20.377 94.651 20.9576 101.656 20.1874C103.757 19.9569 105.559 18.9329 107.351 17.8972C108.39 17.2991 109.464 16.6689 110.606 16.3509C113.929 15.4319 116.72 18.0343 115.893 21.3632C115.566 22.6731 114.807 23.9947 113.912 25.0305C111.619 27.6912 108.561 29.0566 105.044 28.972C102.498 28.9137 99.9518 28.4906 97.4206 28.1405C94.3919 27.7204 91.3869 27.1048 88.3464 26.7751C86.5923 26.5855 84.7792 26.6351 83.0221 26.8422C79.1722 27.2944 76.5262 29.8793 75.8816 33.6517C75.1311 38.0425 76.0612 41.9374 79.4872 45.0299C80.6439 46.0744 81.8035 47.1247 83.0191 48.0992C86.3244 50.7541 87.905 54.0742 87.2486 58.3338C86.7041 61.861 86.8866 65.3387 87.7166 68.8339C88.7526 73.2014 87.0632 76.717 83.7402 79.5586C82.6335 80.5039 81.3591 81.0903 79.8521 81.0786C77.0295 81.0582 75.187 78.8993 75.7198 76.1626C75.8669 75.407 76.1936 74.6893 76.4438 73.9541C76.6704 73.286 76.9677 72.6354 77.1237 71.9527C77.7389 69.2452 76.3702 67.0542 73.5888 66.7362C71.9318 66.5465 70.1305 66.6341 68.5382 67.095C66.5868 67.661 64.6795 68.5713 62.9518 69.6479C60.9739 70.882 59.1874 72.4253 57.3714 73.9016C56.2029 74.8527 55.2757 76.0197 54.9225 77.5368C54.6076 78.8788 54.899 80.0838 55.9056 81.0349C56.9534 82.0239 58.222 82.0414 59.4935 81.5396C60.1498 81.28 60.7561 80.8948 61.3801 80.5535C62.0011 80.2121 62.5927 79.8037 63.2373 79.5119C64.8179 78.7972 66.3984 78.5988 67.8347 79.8445C69.1474 80.9853 69.5242 82.8612 68.7148 84.7139C68.3557 85.5395 67.8229 86.3272 67.2225 87.0041C66.522 87.7947 65.7185 88.5183 64.8649 89.1455C61.6685 91.4941 59.5347 94.5838 58.1719 98.2511C57.8276 99.1759 57.4803 100.124 56.9564 100.953C56.3589 101.895 55.6584 102.823 54.8254 103.564C53.5775 104.675 52.0617 105.037 50.4635 104.293C48.8535 103.543 47.7733 102.251 47.8763 100.486C47.9558 99.1263 48.4826 97.7668 48.9624 96.4626C49.3509 95.4094 50.0131 94.4612 50.4694 93.4284C51.6908 90.6802 51.1728 88.1682 49.2302 85.948C46.2134 82.4995 42.5549 80.4718 37.8721 81.1253" fill="#0A3C61"/>
<mask id="path-2-inside-1_2018_749" fill="white">
<path d="M16.7749 78.0035C15.5151 77.5571 14.1583 77.28 13.0163 76.6323C10.1672 75.016 7.29454 73.4843 4.14818 72.5011C3.74495 72.3756 3.36232 72.1656 2.99147 71.9613C-0.0813191 70.2838 -0.823026 67.6464 0.934113 64.6676C0.969432 64.6063 0.998865 64.5392 1.04301 64.4867C4.74566 60.0988 7.20919 55.0427 9.2636 49.7416C10.1172 47.536 11.7448 45.8001 13.6609 44.3822C15.5652 42.9759 17.5784 42.868 19.2031 44.0321C20.9043 45.2487 21.5812 47.3872 20.9278 49.5053C20.2862 51.5913 18.9352 53.231 17.5077 54.8152C16.4158 56.023 15.1767 57.1171 14.1936 58.4037C13.393 59.4511 12.7014 60.6531 12.2687 61.8901C11.7036 63.5093 12.4571 65.4116 13.6903 66.2401C14.9353 67.0804 16.8102 66.9111 18.2347 65.7062C19.153 64.9302 19.933 63.9995 20.7954 63.1621C22.5937 61.4146 24.6158 60.974 26.161 61.9718C27.8063 63.0338 28.4538 65.2628 27.5855 67.4655C26.2169 70.9461 23.9859 73.8606 21.1809 76.3289C19.9683 77.3967 18.4908 77.8956 16.769 78.0152"/>
</mask>
<path d="M13.0163 76.6323L12.7284 77.1398L12.7284 77.1398L13.0163 76.6323ZM4.14818 72.5011L4.32221 71.9441L4.32152 71.9439L4.14818 72.5011ZM2.99147 71.9613L3.27294 71.4502L3.27107 71.4492L2.99147 71.9613ZM0.934113 64.6676L1.43671 64.9641L1.43963 64.959L0.934113 64.6676ZM1.04301 64.4867L0.597065 64.1104L0.596378 64.1112L1.04301 64.4867ZM9.2636 49.7416L9.80767 49.9525L9.80777 49.9522L9.2636 49.7416ZM13.6609 44.3822L13.3142 43.9128L13.3138 43.9131L13.6609 44.3822ZM19.2031 44.0321L18.8632 44.5064L18.8636 44.5067L19.2031 44.0321ZM20.9278 49.5053L20.3703 49.3333L20.3701 49.3338L20.9278 49.5053ZM17.5077 54.8152L17.9406 55.2065L17.9412 55.2058L17.5077 54.8152ZM14.1936 58.4037L14.6572 58.758L14.6573 58.758L14.1936 58.4037ZM12.2687 61.8901L11.7179 61.6975L11.7178 61.6979L12.2687 61.8901ZM13.6903 66.2401L14.0167 65.7565L14.0157 65.7558L13.6903 66.2401ZM18.2347 65.7062L17.8581 65.2605L17.8579 65.2607L18.2347 65.7062ZM20.7954 63.1621L21.2018 63.5808L21.202 63.5806L20.7954 63.1621ZM26.161 61.9718L25.8445 62.462L25.8445 62.4621L26.161 61.9718ZM27.5855 67.4655L27.0427 67.2515L27.0425 67.2519L27.5855 67.4655ZM21.1809 76.3289L20.7955 75.8908L20.7953 75.8909L21.1809 76.3289ZM16.7749 78.0035L16.9697 77.4535C16.3343 77.2283 15.6334 77.0323 15.0304 76.838C14.4028 76.6358 13.823 76.419 13.3041 76.1247L13.0163 76.6323L12.7284 77.1398C13.3516 77.4933 14.0212 77.7389 14.6725 77.9488C15.3483 78.1665 15.9557 78.3323 16.58 78.5535L16.7749 78.0035ZM13.0163 76.6323L13.3042 76.1248C10.4513 74.5063 7.53245 72.9473 4.32221 71.9441L4.14818 72.5011L3.97414 73.058C7.05664 74.0213 9.8831 75.5257 12.7284 77.1398L13.0163 76.6323ZM4.14818 72.5011L4.32152 71.9439C3.98418 71.839 3.65287 71.6594 3.27294 71.4502L2.99147 71.9613L2.71 72.4725C3.07177 72.6717 3.50572 72.9123 3.97483 73.0582L4.14818 72.5011ZM2.99147 71.9613L3.27107 71.4492C1.82717 70.6609 1.00828 69.6911 0.713188 68.6441C0.418486 67.5985 0.613468 66.3596 1.43669 64.964L0.934113 64.6676L0.431536 64.3711C-0.502382 65.9543 -0.815116 67.5235 -0.410053 68.9607C-0.00537717 70.3965 1.08297 71.5842 2.71186 72.4735L2.99147 71.9613ZM0.934113 64.6676L1.43963 64.959C1.45347 64.935 1.4657 64.9122 1.47429 64.8962C1.48414 64.8778 1.48935 64.8679 1.49483 64.8581C1.50591 64.8383 1.50312 64.8462 1.48965 64.8622L1.04301 64.4867L0.596378 64.1112C0.538754 64.1798 0.499183 64.2475 0.475674 64.2896C0.434242 64.3639 0.451935 64.3357 0.428595 64.3762L0.934113 64.6676ZM1.04301 64.4867L1.48896 64.863C5.25135 60.4043 7.74287 55.2804 9.80767 49.9525L9.2636 49.7416L8.71953 49.5308C6.6755 54.8051 4.23997 59.7933 0.597066 64.1104L1.04301 64.4867ZM9.2636 49.7416L9.80777 49.9522C10.6075 47.8857 12.1435 46.231 14.008 44.8512L13.6609 44.3822L13.3138 43.9131C11.3461 45.3692 9.62682 47.1863 8.71943 49.531L9.2636 49.7416ZM13.6609 44.3822L14.0075 44.8516C15.751 43.564 17.4844 43.5185 18.8632 44.5064L19.2031 44.0321L19.5429 43.5578C17.6723 42.2175 15.3793 42.3878 13.3142 43.9128L13.6609 44.3822ZM19.2031 44.0321L18.8636 44.5067C20.3454 45.5663 20.9553 47.4369 20.3703 49.3333L20.9278 49.5053L21.4854 49.6773C22.2072 47.3375 21.4632 44.931 19.5425 43.5574L19.2031 44.0321ZM20.9278 49.5053L20.3701 49.3338C19.7696 51.286 18.4994 52.843 17.0743 54.4246L17.5077 54.8152L17.9412 55.2058C19.371 53.619 20.8028 51.8966 21.4855 49.6769L20.9278 49.5053ZM17.5077 54.8152L17.0749 54.4239C16.5384 55.0173 15.9717 55.5764 15.3915 56.1731C14.8187 56.7622 14.2433 57.3776 13.7299 58.0494L14.1936 58.4037L14.6573 58.758C15.127 58.1432 15.6627 57.5682 16.2282 56.9867C16.7862 56.4128 17.3851 55.8209 17.9406 55.2065L17.5077 54.8152ZM14.1936 58.4037L13.73 58.0494C12.8993 59.1362 12.1745 60.392 11.7179 61.6975L12.2687 61.8901L12.8195 62.0828C13.2282 60.9142 13.8868 59.766 14.6572 58.758L14.1936 58.4037ZM12.2687 61.8901L11.7178 61.6979C11.061 63.5797 11.9221 65.7551 13.3649 66.7245L13.6903 66.2401L14.0157 65.7558C12.992 65.068 12.3461 63.439 12.8196 62.0824L12.2687 61.8901ZM13.6903 66.2401L13.3639 66.7238C14.8682 67.739 17.0299 67.4895 18.6115 66.1517L18.2347 65.7062L17.8579 65.2607C16.5904 66.3328 15.0024 66.4217 14.0167 65.7565L13.6903 66.2401ZM18.2347 65.7062L18.6114 66.1519C19.0945 65.7436 19.536 65.2991 19.9567 64.8616C20.3835 64.4176 20.7803 63.9901 21.2018 63.5808L20.7954 63.1621L20.3889 62.7435C19.9481 63.1715 19.5237 63.6281 19.1154 64.0528C18.7008 64.4839 18.2933 64.8928 17.8581 65.2605L18.2347 65.7062ZM20.7954 63.1621L21.202 63.5806C22.896 61.9345 24.6189 61.6706 25.8445 62.462L26.161 61.9718L26.4775 61.4816C24.6126 60.2774 22.2915 60.8946 20.3887 62.7437L20.7954 63.1621ZM26.161 61.9718L25.8445 62.4621C27.2161 63.3473 27.8276 65.2603 27.0427 67.2515L27.5855 67.4655L28.1284 67.6794C29.08 65.2652 28.3965 62.7202 26.4774 61.4816L26.161 61.9718ZM27.5855 67.4655L27.0425 67.2519C25.7136 70.6314 23.5438 73.4724 20.7955 75.8908L21.1809 76.3289L21.5664 76.7669C24.428 74.2489 26.7202 71.2607 28.1286 67.679L27.5855 67.4655ZM21.1809 76.3289L20.7953 75.8909C19.7022 76.8535 18.3576 77.3199 16.7285 77.4331L16.769 78.0152L16.8094 78.5973C18.6239 78.4712 20.2344 77.9398 21.5666 76.7668L21.1809 76.3289Z" fill="#0A3C61" mask="url(#path-2-inside-1_2018_749)"/>
<mask id="path-4-inside-2_2018_749" fill="white">
<path d="M107.072 52.0845C106.783 55.2004 106.448 58.5001 106.18 61.8056C105.924 64.9682 105.753 68.1337 105.517 71.2992C105.435 72.4195 105.367 73.5544 105.141 74.6514C104.858 76.0314 103.993 77.0642 102.751 77.7498C100.894 78.7709 98.9834 78.38 97.9709 76.539C97.3764 75.4595 97.0114 74.1671 96.9025 72.9359C96.5464 68.9331 96.2314 64.9186 96.152 60.9041C96.1137 59.034 96.6141 57.1464 96.9408 55.2762C97.1233 54.2376 97.5206 53.2369 97.7148 52.1983C98.3035 49.0795 97.1056 46.6317 94.2359 45.1875C93.0998 44.6157 91.8195 44.3123 90.701 43.7083C89.406 43.0081 88.0256 42.2992 87.0219 41.2693C84.576 38.7603 85.7651 35.1776 89.2353 34.5153C90.5303 34.2673 91.9931 34.2177 93.2469 34.559C95.9106 35.2797 98.5449 36.1812 101.079 37.2694C103.11 38.1388 104.426 39.8631 105.158 41.952C106.292 45.1729 106.898 48.493 107.072 52.0874"/>
</mask>
<path d="M106.18 61.8056L105.598 61.7585L105.598 61.7585L106.18 61.8056ZM105.517 71.2992L104.936 71.2559L104.936 71.2564L105.517 71.2992ZM105.141 74.6514L104.569 74.5333L104.569 74.5344L105.141 74.6514ZM102.751 77.7498L103.032 78.2611L103.033 78.2606L102.751 77.7498ZM97.9709 76.539L98.4822 76.2578L98.482 76.2575L97.9709 76.539ZM96.9025 72.9359L97.4837 72.8845L97.4837 72.8842L96.9025 72.9359ZM96.152 60.9041L96.7353 60.8926L96.7353 60.8922L96.152 60.9041ZM96.9408 55.2762L96.3661 55.1753L96.366 55.1758L96.9408 55.2762ZM97.7148 52.1983L97.1415 52.0901L97.1413 52.091L97.7148 52.1983ZM94.2359 45.1875L93.9736 45.7087L93.9736 45.7087L94.2359 45.1875ZM90.701 43.7083L90.4235 44.2216L90.4238 44.2218L90.701 43.7083ZM87.0219 41.2693L87.4398 40.8621L87.4397 40.862L87.0219 41.2693ZM89.2353 34.5153L89.3446 35.0884L89.345 35.0884L89.2353 34.5153ZM93.2469 34.559L93.0937 35.1221L93.0946 35.1223L93.2469 34.559ZM101.079 37.2694L100.849 37.8056L100.849 37.8058L101.079 37.2694ZM105.158 41.952L104.608 42.1452L104.608 42.1457L105.158 41.952ZM107.072 52.0845L106.491 52.0307C106.203 55.1394 105.866 58.4487 105.598 61.7585L106.18 61.8056L106.761 61.8527C107.029 58.5515 107.363 55.2614 107.653 52.1383L107.072 52.0845ZM106.18 61.8056L105.598 61.7585C105.343 64.915 105.169 68.1149 104.936 71.2559L105.517 71.2992L106.099 71.3425C106.337 68.1525 106.505 65.0214 106.761 61.8527L106.18 61.8056ZM105.517 71.2992L104.936 71.2564C104.852 72.3919 104.786 73.4823 104.569 74.5333L105.141 74.6514L105.712 74.7695C105.948 73.6265 106.018 72.4472 106.099 71.342L105.517 71.2992ZM105.141 74.6514L104.569 74.5344C104.326 75.7202 103.587 76.6216 102.469 77.2389L102.751 77.7498L103.033 78.2606C104.399 77.5067 105.39 76.3426 105.712 74.7684L105.141 74.6514ZM102.751 77.7498L102.47 77.2385C101.641 77.6942 100.847 77.81 100.18 77.6502C99.5212 77.4925 98.9184 77.051 98.4822 76.2578L97.9709 76.539L97.4596 76.8202C98.0359 77.868 98.8945 78.5424 99.9082 78.7851C100.913 79.0258 102.004 78.8265 103.032 78.2611L102.751 77.7498ZM97.9709 76.539L98.482 76.2575C97.9307 75.2565 97.5863 74.0439 97.4837 72.8845L96.9025 72.9359L96.3213 72.9873C96.4365 74.2903 96.8221 75.6626 97.4598 76.8205L97.9709 76.539ZM96.9025 72.9359L97.4837 72.8842C97.1278 68.8838 96.8144 64.8859 96.7353 60.8926L96.152 60.9041L95.5686 60.9157C95.6485 64.9513 95.9649 68.9824 96.3213 72.9876L96.9025 72.9359ZM96.152 60.9041L96.7353 60.8922C96.6986 59.0975 97.1767 57.3165 97.5156 55.3767L96.9408 55.2762L96.366 55.1758C96.0514 56.9763 95.5288 58.9705 95.5686 60.916L96.152 60.9041ZM96.9408 55.2762L97.5155 55.3772C97.6006 54.8929 97.7368 54.4118 97.8842 53.8983C98.0289 53.3946 98.1852 52.8571 98.2884 52.3056L97.7148 52.1983L97.1413 52.091C97.0502 52.5781 96.9107 53.0603 96.7626 53.5762C96.6172 54.0824 96.4635 54.6209 96.3661 55.1753L96.9408 55.2762ZM97.7148 52.1983L98.2882 52.3065C98.6014 50.647 98.4462 49.1226 97.7953 47.8063C97.1444 46.4899 96.0238 45.4341 94.4982 44.6663L94.2359 45.1875L93.9736 45.7087C95.3176 46.3851 96.2309 47.2752 96.7492 48.3235C97.2675 49.3718 97.4169 50.6307 97.1415 52.0901L97.7148 52.1983ZM94.2359 45.1875L94.4982 44.6663C93.8949 44.3627 93.257 44.1321 92.6644 43.9128C92.0596 43.6888 91.4965 43.4747 90.9782 43.1949L90.701 43.7083L90.4238 44.2218C91.024 44.5459 91.6603 44.7854 92.2593 45.0072C92.8705 45.2335 93.4407 45.4405 93.9736 45.7087L94.2359 45.1875ZM90.701 43.7083L90.9785 43.1951C89.6543 42.4791 88.3674 41.8139 87.4398 40.8621L87.0219 41.2693L86.604 41.6766C87.6837 42.7845 89.1576 43.5372 90.4235 44.2216L90.701 43.7083ZM87.0219 41.2693L87.4397 40.862C86.3542 39.7484 86.1133 38.4487 86.4643 37.3822C86.8163 36.3128 87.7948 35.3842 89.3446 35.0884L89.2353 34.5153L89.1259 33.9421C87.2056 34.3086 85.8544 35.5025 85.3558 37.0173C84.8563 38.535 85.2437 40.2811 86.6041 41.6766L87.0219 41.2693ZM89.2353 34.5153L89.345 35.0884C90.5862 34.8507 91.9533 34.8116 93.0937 35.1221L93.2469 34.559L93.4002 33.996C92.0329 33.6238 90.4744 33.6839 89.1255 33.9422L89.2353 34.5153ZM93.2469 34.559L93.0946 35.1223C95.7337 35.8363 98.3417 36.729 100.849 37.8056L101.079 37.2694L101.309 36.7332C98.748 35.6334 96.0875 34.7231 93.3993 33.9958L93.2469 34.559ZM101.079 37.2694L100.849 37.8058C102.692 38.5945 103.914 40.1664 104.608 42.1452L105.158 41.952L105.709 41.7588C104.937 39.5597 103.528 37.6831 101.309 36.733L101.079 37.2694ZM105.158 41.952L104.608 42.1457C105.72 45.3074 106.317 48.571 106.489 52.1156L107.072 52.0874L107.654 52.0593C107.478 48.4151 106.863 45.0385 105.709 41.7584L105.158 41.952Z" fill="#0A3C61" mask="url(#path-4-inside-2_2018_749)"/>
<mask id="path-6-inside-3_2018_749" fill="white">
<path d="M26.7465 9.34009C28.2976 9.47721 29.9429 9.49471 31.5382 9.7923C35.3703 10.51 36.5476 13.4946 34.3372 16.7155C33.8987 17.3545 33.3954 17.9526 32.8803 18.5331C30.9318 20.7271 30.2049 23.277 30.4992 26.1653C30.6493 27.6358 30.8612 29.1237 30.7553 30.5825C30.6728 31.7349 30.3609 32.9836 29.7722 33.9668C28.0386 36.8638 24.1064 36.9339 22.0814 34.2177C21.2014 33.0361 20.8599 31.6678 20.8835 30.2382C20.907 28.8349 21.0336 27.4257 21.1896 26.0282C21.4456 23.7088 21.013 21.5528 19.871 19.5134C19.2853 18.469 18.6848 17.4157 18.2581 16.3042C16.9925 12.9928 18.4847 10.3262 21.9872 9.7252C23.5177 9.46262 25.0924 9.46554 26.7377 9.343"/>
</mask>
<path d="M31.5382 9.7923L31.6456 9.21877L31.6452 9.21869L31.5382 9.7923ZM34.3372 16.7155L34.8183 17.0457L34.8183 17.0457L34.3372 16.7155ZM32.8803 18.5331L33.3166 18.9206L33.3168 18.9204L32.8803 18.5331ZM30.4992 26.1653L29.9187 26.2245L29.9187 26.2246L30.4992 26.1653ZM30.7553 30.5825L30.1733 30.5402L30.1732 30.5408L30.7553 30.5825ZM29.7722 33.9668L29.2716 33.667L29.2715 33.6671L29.7722 33.9668ZM22.0814 34.2177L21.6134 34.5662L21.6136 34.5664L22.0814 34.2177ZM20.8835 30.2382L20.3001 30.2284L20.3001 30.2286L20.8835 30.2382ZM21.1896 26.0282L21.7695 26.093L21.7696 26.0923L21.1896 26.0282ZM19.871 19.5134L20.3801 19.2283L20.3799 19.228L19.871 19.5134ZM18.2581 16.3042L17.713 16.5125L17.7133 16.5133L18.2581 16.3042ZM21.9872 9.7252L21.8885 9.1501L21.8885 9.1501L21.9872 9.7252ZM26.7465 9.34009L26.6951 9.92132C28.3092 10.064 29.8709 10.0748 31.4312 10.3659L31.5382 9.7923L31.6452 9.21869C30.0149 8.91458 28.286 8.89041 26.7979 8.75885L26.7465 9.34009ZM31.5382 9.7923L31.4308 10.3658C33.2212 10.7011 34.2626 11.5371 34.6621 12.5325C35.0631 13.5315 34.892 14.8759 33.8561 16.3854L34.3372 16.7155L34.8183 17.0457C35.9929 15.3342 36.3383 13.5759 35.7452 12.0979C35.1506 10.6163 33.6873 9.60116 31.6456 9.21877L31.5382 9.7923ZM34.3372 16.7155L33.8561 16.3853C33.4381 16.9944 32.9536 17.5713 32.4438 18.1459L32.8803 18.5331L33.3168 18.9204C33.8372 18.3338 34.3593 17.7145 34.8183 17.0457L34.3372 16.7155ZM32.8803 18.5331L32.444 18.1457C30.3782 20.4718 29.6092 23.1875 29.9187 26.2245L30.4992 26.1653L31.0797 26.1062C30.8005 23.3665 31.4855 20.9824 33.3166 18.9206L32.8803 18.5331ZM30.4992 26.1653L29.9187 26.2246C30.0724 27.7298 30.2745 29.1469 30.1733 30.5402L30.7553 30.5825L31.3372 30.6247C31.4479 29.1005 31.2262 27.5417 31.0797 26.1061L30.4992 26.1653ZM30.7553 30.5825L30.1732 30.5408C30.0953 31.63 29.8007 32.7833 29.2716 33.667L29.7722 33.9668L30.2728 34.2665C30.921 33.1838 31.2503 31.8397 31.3373 30.6241L30.7553 30.5825ZM29.7722 33.9668L29.2715 33.6671C27.7677 36.1803 24.3453 36.2782 22.5492 33.8689L22.0814 34.2177L21.6136 34.5664C23.8674 37.5896 28.3095 37.5474 30.2729 34.2664L29.7722 33.9668ZM22.0814 34.2177L22.5494 33.8691C21.7611 32.8107 21.445 31.5757 21.4669 30.2478L20.8835 30.2382L20.3001 30.2286C20.2748 31.7599 20.6416 33.2614 21.6134 34.5662L22.0814 34.2177ZM20.8835 30.2382L21.4669 30.248C21.49 28.8717 21.6143 27.4835 21.7695 26.093L21.1896 26.0282L20.6097 25.9635C20.4529 27.3679 20.3241 28.7981 20.3001 30.2284L20.8835 30.2382ZM21.1896 26.0282L21.7696 26.0923C22.0389 23.6527 21.5819 21.3745 20.3801 19.2283L19.871 19.5134L19.3619 19.7985C20.444 21.731 20.8524 23.7649 20.6096 25.9642L21.1896 26.0282ZM19.871 19.5134L20.3799 19.228C19.7884 18.1732 19.2114 17.1592 18.8028 16.095L18.2581 16.3042L17.7133 16.5133C18.1583 17.6722 18.7821 18.7647 19.3621 19.7988L19.871 19.5134ZM18.2581 16.3042L18.8031 16.0959C18.2157 14.5589 18.2961 13.2531 18.8427 12.2852C19.3888 11.3183 20.462 10.5789 22.0859 10.3003L21.9872 9.7252L21.8885 9.1501C20.0099 9.47247 18.5858 10.3669 17.8265 11.7114C17.0678 13.0549 17.0349 14.7381 17.713 16.5125L18.2581 16.3042ZM21.9872 9.7252L22.0859 10.3003C23.5814 10.0437 25.0745 10.052 26.781 9.92489L26.7377 9.343L26.6943 8.76111C25.1102 8.87909 23.454 8.88152 21.8885 9.1501L21.9872 9.7252Z" fill="#0A3C61" mask="url(#path-6-inside-3_2018_749)"/>
<path d="M92.6995 13.6406C90.86 13.6523 89.2147 13.2992 87.8667 12.0914C85.4738 9.95286 86.0889 6.75819 89.1411 5.74873C90.2066 5.39572 91.3662 5.244 92.4935 5.1594C95.5428 4.92891 98.33 3.99823 100.938 2.42861C102.209 1.66422 103.528 0.923172 104.911 0.39802C107.363 -0.532665 109.703 0.217138 110.945 2.14269C112.208 4.10034 111.981 6.5102 110.106 8.32489C109.164 9.23807 107.987 10.1571 106.757 10.4868C102.365 11.6625 97.9062 12.5874 93.4677 13.5968C93.194 13.6581 92.8997 13.6289 92.6966 13.6406" fill="#0A3C61"/>
<mask id="path-9-inside-4_2018_749" fill="white">
<path d="M115.522 73.3762C119.596 73.5104 123.669 78.4031 123.007 82.3738C122.618 84.6991 120.746 86.1724 118.303 86.0732C115.048 85.9449 110.822 82.3534 110.192 79.185C109.556 75.9874 112.058 73.2625 115.525 73.3762"/>
</mask>
<path d="M123.007 82.3738L123.582 82.47L123.582 82.4698L123.007 82.3738ZM118.303 86.0732L118.327 85.4902L118.326 85.4902L118.303 86.0732ZM110.192 79.185L110.764 79.0712L110.764 79.0712L110.192 79.185ZM115.522 73.3762L115.503 73.9594C117.322 74.0194 119.216 75.1562 120.592 76.8096C121.968 78.4638 122.726 80.5134 122.431 82.2778L123.007 82.3738L123.582 82.4698C123.95 80.2635 123.002 77.8815 121.489 76.0631C119.975 74.2439 117.795 72.8673 115.541 72.7931L115.522 73.3762ZM123.007 82.3738L122.431 82.2777C122.094 84.2968 120.493 85.5781 118.327 85.4902L118.303 86.0732L118.28 86.6562C121 86.7667 123.143 85.1013 123.582 82.47L123.007 82.3738ZM118.303 86.0732L118.326 85.4902C116.878 85.4331 115.129 84.5883 113.641 83.3244C112.152 82.06 111.044 80.4769 110.764 79.0712L110.192 79.185L109.619 79.2988C109.97 81.0615 111.289 82.8583 112.885 84.2139C114.482 85.5698 116.473 86.585 118.28 86.6563L118.303 86.0732ZM110.192 79.185L110.764 79.0712C110.211 76.2894 112.365 73.8563 115.506 73.9594L115.525 73.3762L115.544 72.7931C111.751 72.6686 108.901 75.6854 109.619 79.2988L110.192 79.185Z" fill="#0A3C61" mask="url(#path-9-inside-4_2018_749)"/>
</svg>
