<svg width="277" height="661" viewBox="0 0 277 661" fill="none" xmlns="http://www.w3.org/2000/svg">
<g clip-path="url(#clip0_732_9109)">
<path d="M-176.92 511.81C-192.77 510.86 -207.16 513.76 -221.16 518.86C-224.78 520.18 -228.39 521.69 -231.72 523.6C-243.16 530.14 -246.63 539.44 -242.48 551.85C-241.41 555.06 -239.72 558.13 -239.09 561.41C-238.25 565.86 -237.23 570.59 -237.92 574.95C-239.81 586.87 -252.57 591.03 -261.7 583.13C-265.89 579.5 -268.3 574.8 -269.71 569.59C-270.79 565.63 -271.62 561.58 -272.29 557.53C-274.08 546.59 -279.09 537.53 -287.37 530.13C-290.96 526.93 -294.35 523.41 -297.32 519.64C-301.72 514.06 -303.08 507.44 -302.09 500.44C-300.4 488.47 -288.84 483.07 -278.75 489.7C-275.14 492.07 -272.11 495.3 -268.78 498.1C-260.76 504.86 -254.62 505.42 -245.59 500.1C-243.09 498.63 -240.69 496.98 -238.34 495.28C-229.26 488.68 -219.16 485.18 -207.91 484.94C-203.56 484.85 -199.17 484.81 -194.87 484.22C-191.08 483.7 -187.18 482.93 -183.7 481.42C-173.6 477.01 -169.72 468.04 -173.03 457.58C-175.64 449.34 -180 442.14 -186.54 436.43C-195.01 429.03 -204.25 429.88 -211.09 438.77C-213.43 441.81 -215.23 445.3 -217.04 448.71C-222.69 459.33 -231.58 464.9 -243.48 464.68C-250.19 464.56 -257.17 463.97 -263.49 461.93C-275.2 458.14 -286.79 453.73 -297.92 448.5C-317.82 439.15 -326.61 421.55 -322.66 401.03C-320.73 390.99 -314.94 384.09 -307.32 382.76C-299.8 381.45 -292.06 385.99 -287.01 395.16C-284.8 399.17 -283.19 403.51 -281.44 407.75C-278.83 414.07 -275.74 420.05 -270.58 424.71C-265.15 429.61 -258.96 432.53 -251.44 431.76C-239.47 430.54 -232.72 419.57 -237.44 408.55C-238.94 405.06 -241.27 401.84 -243.64 398.82C-249.9 390.82 -256.45 383.06 -262.75 375.09C-269.15 366.99 -276.71 360.34 -285.99 355.76C-296.41 350.61 -304.88 343.35 -311.44 333.68C-317.45 324.83 -324.9 317.23 -333.2 310.45C-339.06 305.66 -344.11 300.18 -347.5 293.3C-351.3 285.56 -352.25 277.57 -349.47 269.36C-347.84 264.56 -345.57 259.98 -343.93 255.19C-342.37 250.65 -340.46 246.01 -340.12 241.3C-339.16 228.09 -350.59 220.09 -362.82 225.06C-365.49 226.15 -368.11 227.52 -370.49 229.14C-377.38 233.83 -385.05 236.11 -393.18 235.24C-410.05 233.43 -420.55 241.19 -429.45 255C-444.87 278.91 -453.04 304.59 -453.77 332.88C-453.91 338.16 -454.43 343.57 -455.77 348.65C-457.88 356.63 -463.04 362.36 -471.32 364.34C-485.13 367.64 -497.46 355.57 -494.03 341.76C-492.85 337 -489.8 332.64 -487.24 328.31C-485.16 324.78 -482.2 321.76 -480.26 318.18C-475.59 309.59 -478.24 301.33 -486.92 296.77C-489.04 295.65 -491.4 294.97 -493.65 294.09C-495.9 293.21 -498.27 292.56 -500.39 291.42C-509.5 286.54 -510.13 276.72 -501.45 271.21C-498.06 269.06 -494.01 267.46 -490.06 266.78C-474.18 264.05 -462.71 255.29 -454.12 242.07C-448.19 232.95 -441.73 224.16 -436 214.92C-426.07 198.92 -427.61 182.66 -435.99 166.58C-438.98 160.84 -443.38 156.42 -449.75 154.37C-460 151.07 -469.29 157.97 -468.56 168.71C-468.29 172.75 -467.2 176.85 -465.79 180.67C-459.88 196.72 -463.38 210.41 -476.49 221.05C-484.9 227.87 -493.74 234.5 -503.27 239.55C-519.5 248.15 -531.94 259.87 -539.72 276.55C-541.25 279.82 -543.22 282.94 -545.41 285.81C-547.44 288.47 -549.78 291.04 -552.43 293.06C-559.14 298.16 -567.37 298.52 -573.45 294.4C-579.52 290.28 -582.68 282.33 -580.09 274.45C-578.4 269.29 -575.8 263.98 -572.23 259.95C-555.51 241.13 -538.58 222.49 -515.65 210.69C-510.76 208.17 -506.08 204.92 -501.98 201.24C-494 194.1 -491.32 184.91 -495.4 174.91C-498.57 167.13 -503.1 159.89 -507.04 152.42C-510.64 145.59 -514.55 138.9 -517.74 131.89C-519.08 128.94 -519.5 125.28 -519.34 121.99C-518.75 109.68 -506.58 102.86 -495.78 108.79C-492.45 110.62 -489.31 113.15 -486.74 115.95C-478.96 124.41 -469.53 128.33 -458.15 127.09C-437.52 124.84 -422.92 134.83 -410.92 150.1C-404.53 158.24 -401.63 167.48 -402.75 177.92C-403.19 182 -403.55 186.14 -403.33 190.22C-402.88 198.57 -398.02 204.65 -391.02 206.3C-384.45 207.85 -377.6 204.56 -373.3 197.72C-370.25 192.87 -368.57 187.49 -369 181.85C-369.65 173.43 -370.42 164.96 -372.1 156.7C-373.78 148.45 -378.64 141.59 -384.82 135.96C-393.93 127.65 -403.19 119.49 -412.68 111.62C-419.48 105.98 -427.57 102.67 -436.16 100.66C-440.63 99.6101 -445.15 98.7401 -449.62 97.6501C-457.3 95.7801 -464.45 92.5601 -469.57 86.4501C-480.82 73.0001 -494 71.5001 -509.24 78.7001C-520.44 83.9901 -532.45 85.2401 -544.69 84.5901C-551.28 84.2401 -557.66 83.11 -563.19 79.0601C-568.22 75.3801 -571.46 70.73 -570.4 64.2601C-569.28 57.42 -565.09 52.6601 -558.4 51.1601C-553.78 50.1301 -548.83 50.3301 -544.03 50.4501C-537.27 50.6301 -530.53 51.5801 -523.77 51.6101C-513.1 51.6601 -503.46 48.0201 -496.57 39.9301C-485.59 27.0501 -472.06 20.1301 -455.34 18.2701C-445.87 17.2101 -437.31 13.0701 -429.22 7.93011C-424.97 5.2301 -420.48 2.60004 -415.74 1.00006C-404.47 -2.80994 -394.69 4.26013 -393.99 16.1801C-393.2 29.7201 -404.32 41.7101 -418.68 42.2401C-423.45 42.4101 -428.29 41.47 -433.06 40.7501C-438.16 39.98 -443.18 39.61 -448.07 41.6301C-453.55 43.9001 -457.76 47.5201 -458.18 53.7501C-458.6 60.1501 -454.53 64.0201 -449.18 66.5301C-446.81 67.6401 -444.17 68.3201 -441.58 68.8201C-438.5 69.4101 -435.35 69.6901 -432.21 69.9301C-419.62 70.8701 -408.68 75.6601 -399.91 84.6701C-388.27 96.6301 -375.06 106.05 -359.71 112.7C-355.37 114.58 -351.43 117.71 -347.79 120.83C-341.8 125.98 -338.81 132.71 -339.14 140.75C-339.17 141.48 -339.11 142.21 -339.2 142.92C-342.31 167.66 -334.8 190.34 -325.34 212.52C-323.11 217.74 -319.71 222.73 -315.86 226.93C-310.25 233.04 -302.57 234.08 -295.94 230.88C-289.35 227.7 -284.93 220.06 -285.98 212.24C-286.51 208.25 -287.71 204.07 -289.7 200.61C-296.18 189.34 -300.15 177.34 -302.59 164.6C-304.04 157.04 -307.01 149.78 -309.16 142.35C-311.48 134.32 -309.98 127.02 -304.55 120.61C-299.03 114.09 -290.35 111.23 -283.04 113.68C-274.57 116.52 -269.94 122.7 -269.15 131.4C-268.74 135.92 -269.16 140.6 -269.76 145.13C-271.28 156.65 -268.89 167.2 -263 177.15C-260.17 181.93 -257.63 186.89 -255.18 191.88C-251.74 198.89 -251.2 206.34 -252.95 213.85C-256.74 230.11 -264.57 243.98 -277.6 254.72C-283.13 259.28 -289.29 262.37 -296.36 263.71C-300.4 264.47 -304.48 265.17 -308.39 266.41C-314.29 268.29 -318.61 272.01 -319.53 278.52C-320.48 285.25 -317.53 290.42 -312 293.87C-308.98 295.75 -305.42 296.83 -302.01 297.97C-299.97 298.65 -297.75 298.88 -295.58 299.09C-278.59 300.73 -266.84 309.82 -259.63 324.89C-252.97 338.81 -244.28 351.13 -233.11 361.8C-227.26 367.38 -223.33 374.34 -220.22 381.79C-218.36 386.24 -216.55 390.8 -213.98 394.85C-210.71 400.01 -205.93 403.42 -199.36 402.2C-193.13 401.05 -190.17 396.42 -188.5 390.76C-188.16 389.6 -187.8 388.43 -187.66 387.23C-186.07 373.9 -179.01 363.92 -168.78 355.73C-165.02 352.72 -161.49 349.35 -158.21 345.82C-151.45 338.56 -149.29 329.85 -151.45 320.24C-154.41 307.08 -159.76 295.11 -168.69 284.72C-175.61 276.67 -182.11 268.23 -188.28 259.59C-193.74 251.95 -200.44 246.66 -209.72 244.63C-213.24 243.86 -216.78 242.77 -220.02 241.23C-228.38 237.26 -231.95 228.91 -227.97 220.59C-221.56 207.17 -210.74 198.43 -196.07 195.62C-185.16 193.53 -177.28 200.48 -176.51 211.71C-176.33 214.35 -176.56 217.03 -176.6 219.69C-176.83 234.9 -170.07 243.25 -155.28 246.07C-152.19 246.66 -149.07 247.16 -146.04 247.97C-135.9 250.67 -130.41 257.01 -129.42 267.46C-129.08 271.05 -129.08 274.76 -129.61 278.31C-131.26 289.38 -129.44 299.99 -126.06 310.47C-124.13 316.45 -122.22 322.45 -120.41 328.47C-116.28 342.28 -119.78 353.74 -131.19 362.67C-135.38 365.95 -139.67 369.1 -143.84 372.41C-150.15 377.42 -155.37 383.41 -159.49 390.36C-166.09 401.51 -165.79 412.4 -158.3 423.02C-156.35 425.79 -154.42 428.58 -152.33 431.24C-146.61 438.54 -143.78 446.86 -143.34 456.07C-143.08 461.39 -142.82 466.7 -142.45 472.01C-141.78 481.52 -137 488.47 -128.63 492.73C-124.13 495.02 -119.35 496.92 -114.49 498.31C-97.2901 503.23 -84.6201 513.49 -75.8201 529.08C-72.7801 534.47 -68.8201 539.64 -64.2801 543.81C-57.9201 549.65 -50.0701 552.1 -41.4301 548.76C-27.5301 543.39 -24.9401 527.11 -36.7001 518.01C-40.2801 515.24 -44.7301 513.62 -48.6901 511.31C-52.2201 509.25 -56.08 507.46 -59.0001 504.71C-67.0201 497.16 -64.8701 486.1 -54.7901 481.68C-49.3001 479.27 -43.3601 478.57 -37.7101 480.14C-27.2601 483.05 -16.9701 486.57 -6.74008 490.18C-4.10007 491.11 -1.73007 493.12 0.45993 494.98C9.37994 502.55 11.1199 511.12 5.83994 521.53C3.64993 525.84 0.889923 529.86 -1.24008 534.19C-6.28009 544.41 -4.00006 553.49 4.71994 558.91C13.3499 564.27 24.2799 562.41 30.4499 553.61C33.5599 549.17 35.6899 543.78 37.1799 538.52C39.6199 529.92 41.2099 521.08 43.0999 512.33C43.5099 510.44 43.7399 508.51 43.8999 506.58C45.0899 492.05 40.3599 483.78 27.2499 477.5C24.6399 476.25 21.8399 475.37 19.2699 474.04C16.0599 472.38 12.6799 470.83 9.93994 468.55C1.65994 461.65 2.37994 451.25 11.4699 445.49C13.86 443.97 16.7099 442.77 19.4799 442.35C23.9899 441.68 28.6299 441.46 33.1899 441.6C46.1499 442.02 55.1199 448.17 59.5199 460.62C60.9699 464.72 62.3399 468.9 64.3099 472.76C69.7199 483.39 79.5899 484.88 87.8999 476.37C90.7599 473.44 93.1899 470.08 95.7099 466.84C102.11 458.61 110.52 454.87 120.64 457.32C137.76 461.46 154.79 466.05 171.71 470.96C180.05 473.38 186.48 479.02 191.86 485.81C195.31 490.17 198.54 494.76 202.42 498.71C215.97 512.5 234.26 508.47 241.14 490.39C244.62 481.23 245.46 471.87 241.73 462.74C235.39 447.21 232.99 431.16 233.6 414.48C233.97 404.37 231.33 394.86 226.58 385.9C224.2 381.42 222.01 376.82 220.03 372.16C219 369.74 218.29 367.09 218 364.49C216.32 349.4 229.73 339.73 243.69 345.84C249.33 348.31 252.96 352.72 255.51 358.1C259.92 367.39 262.46 377.23 262.93 387.47C263.44 398.58 263.63 409.72 263.58 420.84C263.53 431.47 265.41 441.59 270.75 450.82C277.69 462.81 278.18 474.99 273.01 487.74C269.92 495.35 267.66 503.3 264.63 510.94C258.33 526.84 246.43 535.61 229.47 537.17C223.47 537.72 217.38 537.59 211.35 537.36C201.75 536.99 193.48 533.21 186.77 526.36C182.37 521.87 178.21 517.15 174.12 512.37C152.25 486.81 115.88 484.28 90.9299 506.97C86.8999 510.64 83.8299 515.48 80.7699 520.08C74.4899 529.54 68.4999 539.19 62.4299 548.79C60.8799 551.24 59.2399 553.68 58.1199 556.32C55.7899 561.82 55.7799 567.35 60.2099 571.86C64.6099 576.34 70.0699 576.54 75.6899 574.39C77.2599 573.79 78.7599 572.96 80.1999 572.1C81.6499 571.23 82.9799 570.17 84.3799 569.22C97.7699 560.02 108.11 561.03 118.72 573.62C124.45 580.42 129.51 587.93 133.98 595.63C140.35 606.61 147.5 616.74 157.27 625.03C161.27 628.42 164.78 632.62 167.71 636.98C171.48 642.58 172.1 648.74 167.76 654.6C164 659.68 157.03 661.85 150.08 659.93C141.85 657.66 134.88 653.02 130.32 645.96C125.11 637.88 121 629.09 116.45 620.59C113.72 615.48 111.29 610.19 108.31 605.24C105.63 600.8 101.66 597.63 96.6799 595.83C90.9199 593.76 85.5999 594.49 81.1699 598.71C76.5499 603.12 75.0799 608.8 77.5199 614.66C79.0499 618.33 81.8899 621.51 84.3999 624.7C87.0799 628.11 90.5599 630.97 92.8199 634.62C98.5199 643.82 93.9199 653.67 83.2299 655.22C78.9799 655.83 74.5599 655.2 70.2199 655.18C62.2699 655.16 54.2199 654.39 46.3799 655.34C32.8299 656.99 19.8499 655.45 7.05994 651.12C-9.66006 645.46 -26.4401 639.95 -43.0701 634.04C-47.0801 632.61 -51.1601 630.45 -54.2801 627.61C-63.2401 619.46 -60.1001 606.64 -48.5501 602.98C-42.0201 600.91 -35.5101 601.8 -29.3101 604.05C-22.9601 606.36 -16.8701 609.36 -10.6601 612.07C-0.690063 616.42 9.15994 621.1 19.3099 624.99C24.1799 626.85 29.5999 627.94 34.8099 628.08C42.9399 628.3 49.3099 623.23 51.2899 616.31C53.0599 610.12 50.4399 603.19 44.0899 598.67C41.3799 596.74 38.1999 595.34 35.0399 594.25C31.6299 593.07 28.0299 592.34 24.4599 591.76C12.6899 589.82 1.53992 586.04 -9.58008 581.79C-18.7801 578.27 -28.4201 575.64 -38.0801 573.64C-48.6401 571.45 -58.1701 574.68 -66.3201 581.82C-68.8701 584.05 -71.3401 586.41 -74.1301 588.3C-76.9001 590.18 -79.8601 592.04 -83.0101 593.06C-91.1701 595.69 -98.9701 590.88 -100.29 582.41C-100.8 579.15 -100.33 575.68 -99.9401 572.34C-99.5801 569.23 -98.6101 566.19 -98.1101 563.09C-96.2001 551.23 -100.04 541.38 -109.68 534.44C-115.91 529.95 -123 526.64 -129.74 522.85C-144.66 514.47 -160.54 510.12 -176.92 511.78" fill="#BEC2E6"/>
<path d="M135.4 196.22C139.13 196.22 142.54 195.92 145.89 196.28C156.69 197.43 162.01 206.15 157.79 216.09C156.11 220.04 153.8 223.9 151.05 227.2C141.01 239.31 140.03 253.28 142.92 267.71C143.91 272.67 146.99 277.49 150.05 281.69C152.85 285.53 157.02 288.34 160.4 291.79C163.93 295.41 167.75 298.91 170.52 303.07C175.64 310.76 174.34 318.38 167.65 324.62C161.57 330.3 153.78 330.63 146.47 325.28C144.15 323.58 142.15 321.42 140.12 319.35C138.26 317.45 136.63 315.33 134.79 313.4C125.04 303.19 117.33 301.98 105 308.74C101.61 310.6 98.4599 312.98 94.9199 314.48C90.9699 316.16 86.7899 317.73 82.5799 318.26C76.8599 318.98 72.0899 316.43 69.3499 311.2C66.6999 306.13 67.8699 301.06 71.3399 296.97C73.9399 293.91 77.2799 291.29 80.7199 289.17C84.8199 286.65 89.3499 284.81 93.7399 282.78C111.75 274.45 118.15 259.08 119.47 240.59C119.49 240.35 119.47 240.11 119.46 239.86C119.03 231.87 115.24 226.3 108.77 224.14C102.68 222.1 95.7699 224.52 91.1199 231.05C88.3399 234.95 86.4299 239.47 84.1399 243.72C81.3999 248.82 78.9799 254.14 75.8599 259C71.0399 266.49 64.3899 272 56.0099 275.33C49.4599 277.93 42.8199 278.33 36.1299 276.15C31.2999 274.57 26.6399 272.47 21.7499 271.12C18.0799 270.1 14.1199 269.19 10.3899 269.5C0.749908 270.31 -3.95009 279.77 0.669907 288.26C3.0999 292.71 6.9899 295.54 11.5099 297.52C15.7199 299.36 20.0899 300.83 24.2499 302.78C34.7999 307.72 38.4699 314.68 36.9099 326.16C36.5199 329.03 35.9999 331.92 36.0099 334.8C36.0499 344.1 41.5299 350.12 50.8299 349.88C55.9899 349.75 61.2099 347.96 66.2199 346.35C71.4999 344.66 76.4999 342.1 81.7499 340.29C89.8499 337.49 98.2399 336.47 106.79 337.5C125.36 339.73 136.66 353.83 134.52 372.42C133.23 383.63 129.26 394.11 123.31 403.61C119.36 409.92 114.67 415.88 109.62 421.35C103.36 428.14 95.0699 431.67 86.0099 433.14C78.8699 434.3 71.9499 433.53 65.8699 429.22C56.0899 422.3 56.0399 409.59 66.1699 403.22C70.5699 400.46 75.9499 399.23 80.9299 397.43C84.3299 396.2 87.8699 395.33 91.2299 394C93.2299 393.21 95.1299 392.04 96.8499 390.73C103.5 385.67 105.58 378.47 102.34 372.27C99.2699 366.4 92.5699 363.97 84.6699 366.35C80.5299 367.6 76.4999 369.37 72.6299 371.33C64.1299 375.62 55.3199 378.79 45.8699 380.14C45.3899 380.21 44.9199 380.32 44.4399 380.41C27.4399 383.77 24.6999 386.68 22.2899 403.95C22.0199 405.86 21.7599 407.79 21.3299 409.67C18.7799 420.9 10.4499 425.76 -0.480087 422.06C-4.80009 420.59 -8.92007 418.42 -12.9401 416.22C-34.4301 404.44 -57.4901 402.45 -81.2901 405.09C-88.4301 405.88 -94.5501 409.39 -100.64 412.94C-104.17 414.99 -107.82 417.15 -111.7 418.24C-122.99 421.39 -132.47 412.47 -129.66 401.06C-128.55 396.57 -125.97 392.04 -122.93 388.49C-115.14 379.37 -104.75 374.69 -92.8001 374.98C-84.1501 375.18 -75.5001 376.63 -66.9001 377.83C-56.6101 379.27 -46.4001 381.38 -36.0701 382.51C-30.1101 383.16 -23.9501 382.99 -17.9801 382.28C-4.90009 380.73 4.08992 371.87 6.27992 358.94C8.82993 343.89 5.66992 330.54 -5.97008 319.94C-9.90007 316.36 -13.8401 312.76 -17.9701 309.42C-29.2001 300.32 -34.5701 288.94 -32.3401 274.34C-30.4901 262.25 -31.1101 250.33 -33.9301 238.35C-37.4501 223.38 -31.7101 211.33 -20.4201 201.59C-16.6601 198.35 -12.3301 196.34 -7.2101 196.38C2.3799 196.45 8.63991 203.85 6.82991 213.23C6.32991 215.82 5.21992 218.28 4.36992 220.8C3.59991 223.09 2.58992 225.32 2.05992 227.66C-0.0300751 236.94 4.6199 244.45 14.0699 245.54C19.6999 246.19 25.8199 245.89 31.2299 244.31C37.8599 242.37 44.3399 239.25 50.2099 235.56C56.9299 231.33 62.9999 226.04 69.1699 220.98C73.1399 217.72 76.2899 213.72 77.4899 208.52C78.5599 203.92 77.5699 199.79 74.1499 196.53C70.5899 193.14 66.2799 193.08 61.9599 194.8C59.7299 195.69 57.6699 197.01 55.5499 198.18C53.4399 199.35 51.4299 200.75 49.2399 201.75C43.8699 204.2 38.4999 204.88 33.6199 200.61C29.1599 196.7 27.8799 190.27 30.6299 183.92C31.8499 181.09 33.6599 178.39 35.6999 176.07C38.0799 173.36 40.8099 170.88 43.7099 168.73C54.5699 160.68 61.8199 150.09 66.4499 137.52C67.6199 134.35 68.7999 131.1 70.5799 128.26C72.6099 125.03 74.9899 121.85 77.8199 119.31C82.0599 115.5 87.2099 114.26 92.6399 116.81C98.1099 119.38 101.78 123.81 101.43 129.86C101.16 134.52 99.3699 139.18 97.7399 143.65C96.4199 147.26 94.1699 150.51 92.6199 154.05C88.4699 163.47 90.2299 172.08 96.8299 179.69C107.08 191.51 119.51 198.46 135.42 196.22" fill="#BEC2E6"/>
<mask id="path-3-inside-1_732_9109" fill="white">
<path d="M207.1 206.92C211.38 208.45 215.99 209.4 219.87 211.62C229.55 217.16 239.31 222.41 250 225.78C251.37 226.21 252.67 226.93 253.93 227.63C264.37 233.38 266.89 242.42 260.92 252.63C260.8 252.84 260.7 253.07 260.55 253.25C247.97 268.29 239.6 285.62 232.62 303.79C229.72 311.35 224.19 317.3 217.68 322.16C211.21 326.98 204.37 327.35 198.85 323.36C193.07 319.19 190.77 311.86 192.99 304.6C195.17 297.45 199.76 291.83 204.61 286.4C208.32 282.26 212.53 278.51 215.87 274.1C218.59 270.51 220.94 266.39 222.41 262.15C224.33 256.6 221.77 250.08 217.58 247.24C213.35 244.36 206.98 244.94 202.14 249.07C199.02 251.73 196.37 254.92 193.44 257.79C187.33 263.78 180.46 265.29 175.21 261.87C169.62 258.23 167.42 250.59 170.37 243.04C175.02 231.11 182.6 221.12 192.13 212.66C196.25 209 201.27 207.29 207.12 206.88"/>
</mask>
<path d="M219.87 211.62L220.863 209.884L220.863 209.884L219.87 211.62ZM250 225.78L249.399 227.687L249.401 227.688L250 225.78ZM253.93 227.63L252.959 229.378L252.965 229.382L253.93 227.63ZM260.92 252.63L259.193 251.62L259.188 251.629L259.183 251.638L260.92 252.63ZM260.55 253.25L262.084 254.533L262.086 254.53L260.55 253.25ZM232.62 303.79L230.753 303.073L230.753 303.074L232.62 303.79ZM217.68 322.16L218.875 323.764L218.876 323.763L217.68 322.16ZM198.85 323.36L200.022 321.739L200.02 321.738L198.85 323.36ZM192.99 304.6L194.902 305.185L194.903 305.183L192.99 304.6ZM204.61 286.4L203.12 285.065L203.118 285.068L204.61 286.4ZM215.87 274.1L214.276 272.892L214.276 272.892L215.87 274.1ZM222.41 262.15L224.3 262.805L224.3 262.804L222.41 262.15ZM217.58 247.24L216.454 248.893L216.458 248.896L217.58 247.24ZM202.14 249.07L203.437 250.592L203.438 250.591L202.14 249.07ZM193.44 257.79L192.04 256.361L192.04 256.362L193.44 257.79ZM175.21 261.87L176.302 260.194L176.301 260.194L175.21 261.87ZM170.37 243.04L172.233 243.768L172.233 243.766L170.37 243.04ZM192.13 212.66L193.458 214.156L193.458 214.155L192.13 212.66ZM207.1 206.92L206.427 208.803C208.586 209.575 210.97 210.248 213.017 210.913C215.148 211.606 217.116 212.349 218.877 213.356L219.87 211.62L220.863 209.884C218.744 208.671 216.467 207.829 214.253 207.109C211.955 206.362 209.894 205.795 207.773 205.037L207.1 206.92ZM219.87 211.62L218.876 213.356C228.569 218.903 238.488 224.248 249.399 227.687L250 225.78L250.601 223.873C240.131 220.572 230.53 215.417 220.863 209.884L219.87 211.62ZM250 225.78L249.401 227.688C250.544 228.047 251.667 228.661 252.959 229.378L253.93 227.63L254.901 225.882C253.673 225.199 252.196 224.373 250.599 223.872L250 225.78ZM253.93 227.63L252.965 229.382C257.866 232.081 260.649 235.403 261.652 238.996C262.655 242.585 261.991 246.837 259.193 251.62L260.92 252.63L262.646 253.64C265.819 248.213 266.879 242.84 265.505 237.919C264.131 233.002 260.434 228.929 254.895 225.878L253.93 227.63ZM260.92 252.63L259.183 251.638C259.136 251.72 259.095 251.798 259.066 251.853C259.032 251.916 259.015 251.95 258.996 251.983C258.958 252.052 258.968 252.025 259.013 251.97L260.55 253.25L262.086 254.53C262.282 254.295 262.417 254.063 262.496 253.919C262.637 253.665 262.577 253.761 262.656 253.622L260.92 252.63ZM260.55 253.25L259.016 251.967C246.233 267.25 237.768 284.812 230.753 303.073L232.62 303.79L234.487 304.507C241.432 286.428 249.707 269.33 262.084 254.533L260.55 253.25ZM232.62 303.79L230.753 303.074C228.035 310.159 222.816 315.83 216.483 320.557L217.68 322.16L218.876 323.763C225.564 318.77 231.405 312.541 234.487 304.506L232.62 303.79ZM217.68 322.16L216.485 320.556C210.567 324.965 204.695 325.117 200.022 321.739L198.85 323.36L197.678 324.981C204.045 329.583 211.852 328.995 218.875 323.764L217.68 322.16ZM198.85 323.36L200.02 321.738C194.99 318.109 192.912 311.694 194.902 305.185L192.99 304.6L191.077 304.015C188.628 312.026 191.149 320.271 197.68 324.982L198.85 323.36ZM192.99 304.6L194.903 305.183C196.944 298.489 201.26 293.153 206.102 287.732L204.61 286.4L203.118 285.068C198.26 290.507 193.396 296.411 191.077 304.017L192.99 304.6ZM204.61 286.4L206.099 287.735C207.922 285.701 209.847 283.785 211.819 281.739C213.765 279.72 215.72 277.611 217.464 275.307L215.87 274.1L214.276 272.892C212.68 274.999 210.86 276.97 208.939 278.963C207.043 280.93 205.008 282.959 203.12 285.065L204.61 286.4ZM215.87 274.1L217.464 275.308C220.287 271.582 222.749 267.278 224.3 262.805L222.41 262.15L220.52 261.495C219.131 265.502 216.893 269.438 214.276 272.892L215.87 274.1ZM222.41 262.15L224.3 262.804C226.528 256.364 223.61 248.911 218.702 245.584L217.58 247.24L216.458 248.896C219.93 251.249 222.132 256.836 220.52 261.496L222.41 262.15ZM217.58 247.24L218.705 245.587C213.581 242.098 206.22 242.959 200.842 247.549L202.14 249.07L203.438 250.591C207.74 246.921 213.118 246.622 216.454 248.893L217.58 247.24ZM202.14 249.07L200.842 247.548C199.201 248.948 197.7 250.472 196.271 251.971C194.82 253.493 193.473 254.958 192.04 256.361L193.44 257.79L194.839 259.219C196.337 257.752 197.779 256.187 199.167 254.731C200.575 253.253 201.959 251.852 203.437 250.592L202.14 249.07ZM193.44 257.79L192.04 256.362C186.285 262.003 180.448 262.895 176.302 260.194L175.21 261.87L174.118 263.546C180.472 267.685 188.375 265.557 194.84 259.218L193.44 257.79ZM175.21 261.87L176.301 260.194C171.647 257.163 169.562 250.602 172.233 243.768L170.37 243.04L168.507 242.312C165.277 250.578 167.593 259.297 174.119 263.546L175.21 261.87ZM170.37 243.04L172.233 243.766C176.749 232.181 184.121 222.444 193.458 214.156L192.13 212.66L190.802 211.164C181.078 219.796 173.291 230.039 168.506 242.314L170.37 243.04ZM192.13 212.66L193.458 214.155C197.169 210.859 201.731 209.263 207.26 208.875L207.12 206.88L206.98 204.885C200.809 205.317 195.331 207.141 190.802 211.165L192.13 212.66Z" fill="#BEC2E6" mask="url(#path-3-inside-1_732_9109)"/>
<mask id="path-5-inside-2_732_9109" fill="white">
<path d="M173.22 442.27C167.95 441.8 162.36 441.74 156.94 440.72C143.92 438.26 139.92 428.03 147.43 416.99C148.92 414.8 150.63 412.75 152.38 410.76C159 403.24 161.47 394.5 160.47 384.6C159.96 379.56 159.24 374.46 159.6 369.46C159.88 365.51 160.94 361.23 162.94 357.86C168.83 347.93 182.19 347.69 189.07 357C192.06 361.05 193.22 365.74 193.14 370.64C193.06 375.45 192.63 380.28 192.1 385.07C191.23 393.02 192.7 400.41 196.58 407.4C198.57 410.98 200.61 414.59 202.06 418.4C206.36 429.75 201.29 438.89 189.39 440.95C184.19 441.85 178.84 441.84 173.25 442.26"/>
</mask>
<path d="M156.94 440.72L156.569 442.685L156.57 442.686L156.94 440.72ZM147.43 416.99L145.776 415.865L145.776 415.865L147.43 416.99ZM152.38 410.76L150.879 409.439L150.878 409.439L152.38 410.76ZM160.47 384.6L162.46 384.399L162.46 384.399L160.47 384.6ZM159.6 369.46L161.595 369.604L161.595 369.602L159.6 369.46ZM162.94 357.86L164.66 358.881L164.66 358.88L162.94 357.86ZM189.07 357L190.679 355.812L190.678 355.812L189.07 357ZM193.14 370.64L195.14 370.673L195.14 370.673L193.14 370.64ZM192.1 385.07L190.112 384.85L190.112 384.853L192.1 385.07ZM196.58 407.4L194.831 408.371L194.832 408.372L196.58 407.4ZM202.06 418.4L203.93 417.692L203.929 417.689L202.06 418.4ZM189.39 440.95L189.731 442.921L189.731 442.921L189.39 440.95ZM173.22 442.27L173.398 440.278C167.91 439.789 162.609 439.752 157.31 438.755L156.94 440.72L156.57 442.686C162.111 443.728 167.99 443.812 173.042 444.262L173.22 442.27ZM156.94 440.72L157.311 438.755C151.239 437.608 147.703 434.748 146.345 431.333C144.98 427.902 145.564 423.289 149.084 418.115L147.43 416.99L145.776 415.865C141.786 421.732 140.615 427.753 142.628 432.812C144.647 437.888 149.621 441.373 156.569 442.685L156.94 440.72ZM147.43 416.99L149.084 418.115C150.504 416.027 152.15 414.05 153.882 412.081L152.38 410.76L150.878 409.439C149.11 411.45 147.336 413.573 145.776 415.865L147.43 416.99ZM152.38 410.76L153.881 412.082C160.9 404.108 163.511 394.803 162.46 384.399L160.47 384.6L158.48 384.801C159.429 394.197 157.1 402.372 150.879 409.439L152.38 410.76ZM160.47 384.6L162.46 384.399C161.938 379.241 161.251 374.381 161.595 369.604L159.6 369.46L157.605 369.317C157.229 374.539 157.982 379.88 158.48 384.802L160.47 384.6ZM159.6 369.46L161.595 369.602C161.86 365.866 162.862 361.911 164.66 358.881L162.94 357.86L161.22 356.839C159.018 360.549 157.9 365.154 157.605 369.319L159.6 369.46ZM162.94 357.86L164.66 358.88C169.765 350.274 181.366 349.941 187.461 358.189L189.07 357L190.678 355.812C183.014 345.439 167.895 345.586 161.22 356.84L162.94 357.86ZM189.07 357L187.461 358.188C190.14 361.816 191.215 366.052 191.14 370.607L193.14 370.64L195.14 370.673C195.225 365.428 193.98 360.284 190.679 355.812L189.07 357ZM193.14 370.64L191.14 370.607C191.062 375.325 190.639 380.084 190.112 384.85L192.1 385.07L194.088 385.29C194.62 380.477 195.058 375.575 195.14 370.673L193.14 370.64ZM192.1 385.07L190.112 384.853C189.197 393.21 190.749 401.016 194.831 408.371L196.58 407.4L198.329 406.429C194.651 399.804 193.263 392.83 194.088 385.288L192.1 385.07ZM196.58 407.4L194.832 408.372C196.841 411.987 198.802 415.463 200.191 419.112L202.06 418.4L203.929 417.689C202.418 413.717 200.298 409.973 198.328 406.428L196.58 407.4ZM202.06 418.4L200.19 419.109C202.187 424.38 201.914 428.861 200.055 432.182C198.199 435.497 194.556 438.026 189.049 438.979L189.39 440.95L189.731 442.921C196.124 441.814 200.966 438.744 203.545 434.136C206.121 429.534 206.233 423.77 203.93 417.692L202.06 418.4ZM189.39 440.95L189.049 438.979C183.97 439.859 178.902 439.83 173.1 440.266L173.25 442.26L173.4 444.255C178.778 443.85 184.41 443.842 189.731 442.921L189.39 440.95Z" fill="#BEC2E6" mask="url(#path-5-inside-2_732_9109)"/>
</g>
<defs>
<clipPath id="clip0_732_9109">
<rect width="857.46" height="660.65" fill="white" transform="matrix(-1 0 0 -1 276.46 660.65)"/>
</clipPath>
</defs>
</svg>
