<svg width="608" height="661" viewBox="0 0 608 661" fill="none" xmlns="http://www.w3.org/2000/svg">
<g clip-path="url(#clip0_737_9209)">
<path d="M453.38 148.84C469.23 149.79 483.62 146.89 497.62 141.79C501.24 140.47 504.85 138.96 508.18 137.05C519.62 130.51 523.09 121.21 518.94 108.8C517.87 105.59 516.18 102.52 515.55 99.2399C514.71 94.7899 513.69 90.0599 514.38 85.6999C516.27 73.7799 529.03 69.6199 538.16 77.5199C542.35 81.1499 544.76 85.8499 546.17 91.0599C547.25 95.0199 548.08 99.0699 548.75 103.12C550.54 114.06 555.55 123.12 563.83 130.52C567.42 133.72 570.81 137.24 573.78 141.01C578.18 146.59 579.54 153.21 578.55 160.21C576.86 172.18 565.3 177.58 555.21 170.95C551.6 168.58 548.57 165.35 545.24 162.55C537.22 155.79 531.08 155.23 522.05 160.55C519.55 162.02 517.15 163.67 514.8 165.37C505.72 171.97 495.62 175.47 484.37 175.71C480.02 175.8 475.63 175.84 471.33 176.43C467.54 176.95 463.64 177.72 460.16 179.23C450.06 183.64 446.18 192.61 449.49 203.07C452.1 211.31 456.46 218.51 463 224.22C471.47 231.62 480.71 230.77 487.55 221.88C489.89 218.84 491.69 215.35 493.5 211.94C499.15 201.32 508.04 195.75 519.94 195.97C526.65 196.09 533.63 196.68 539.95 198.72C551.66 202.51 563.25 206.92 574.38 212.15C594.28 221.5 603.07 239.1 599.12 259.62C597.19 269.66 591.4 276.56 583.78 277.89C576.26 279.2 568.52 274.66 563.47 265.49C561.26 261.48 559.65 257.14 557.9 252.9C555.29 246.58 552.2 240.6 547.04 235.94C541.61 231.04 535.42 228.12 527.9 228.89C515.93 230.11 509.18 241.08 513.9 252.1C515.4 255.59 517.73 258.81 520.1 261.83C526.36 269.83 532.91 277.59 539.21 285.56C545.61 293.66 553.17 300.31 562.45 304.89C572.87 310.04 581.34 317.3 587.9 326.97C593.91 335.82 601.36 343.42 609.66 350.2C615.52 354.99 620.57 360.47 623.96 367.35C627.76 375.09 628.71 383.08 625.93 391.29C624.3 396.09 622.03 400.67 620.39 405.46C618.83 410 616.92 414.64 616.58 419.35C615.62 432.56 627.05 440.56 639.28 435.59C641.95 434.5 644.57 433.13 646.95 431.51C653.84 426.82 661.51 424.54 669.64 425.41C686.51 427.22 697.01 419.46 705.91 405.65C721.33 381.74 729.5 356.06 730.23 327.77C730.37 322.49 730.89 317.08 732.23 312C734.34 304.02 739.5 298.29 747.78 296.31C761.59 293.01 773.92 305.08 770.49 318.89C769.31 323.65 766.26 328.01 763.7 332.34C761.62 335.87 758.66 338.89 756.72 342.47C752.05 351.06 754.7 359.32 763.38 363.88C765.5 365 767.86 365.68 770.11 366.56C772.36 367.44 774.73 368.09 776.85 369.23C785.96 374.11 786.59 383.93 777.91 389.44C774.52 391.59 770.47 393.19 766.52 393.87C750.64 396.6 739.17 405.36 730.58 418.58C724.65 427.7 718.19 436.49 712.46 445.73C702.53 461.73 704.07 477.99 712.45 494.07C715.44 499.81 719.84 504.23 726.21 506.28C736.46 509.58 745.75 502.68 745.02 491.94C744.75 487.9 743.66 483.8 742.25 479.98C736.34 463.93 739.84 450.24 752.95 439.6C761.36 432.78 770.2 426.15 779.73 421.1C795.96 412.5 808.4 400.78 816.18 384.1C817.71 380.83 819.68 377.71 821.87 374.84C823.9 372.18 826.24 369.61 828.89 367.59C835.6 362.49 843.83 362.13 849.91 366.25C855.98 370.37 859.14 378.32 856.55 386.2C854.86 391.36 852.26 396.67 848.69 400.7C831.97 419.52 815.04 438.16 792.11 449.96C787.22 452.48 782.54 455.73 778.44 459.41C770.46 466.55 767.78 475.74 771.86 485.74C775.03 493.52 779.56 500.76 783.5 508.23C787.1 515.06 791.01 521.75 794.2 528.76C795.54 531.71 795.96 535.37 795.8 538.66C795.21 550.97 783.04 557.79 772.24 551.86C768.91 550.03 765.77 547.5 763.2 544.7C755.42 536.24 745.99 532.32 734.61 533.56C713.98 535.81 699.38 525.82 687.38 510.55C680.99 502.41 678.09 493.17 679.21 482.73C679.65 478.65 680.01 474.51 679.79 470.43C679.34 462.08 674.48 456 667.48 454.35C660.91 452.8 654.06 456.09 649.76 462.93C646.71 467.78 645.03 473.16 645.46 478.8C646.11 487.22 646.88 495.69 648.56 503.95C650.24 512.2 655.1 519.06 661.28 524.69C670.39 533 679.65 541.16 689.14 549.03C695.94 554.67 704.03 557.98 712.62 559.99C717.09 561.04 721.61 561.91 726.08 563C733.76 564.87 740.91 568.09 746.03 574.2C757.28 587.65 770.46 589.15 785.7 581.95C796.9 576.66 808.91 575.41 821.15 576.06C827.74 576.41 834.12 577.54 839.65 581.59C844.68 585.27 847.92 589.92 846.86 596.39C845.74 603.23 841.55 607.99 834.86 609.49C830.24 610.52 825.29 610.32 820.49 610.2C813.73 610.02 806.99 609.07 800.23 609.04C789.56 608.99 779.92 612.63 773.03 620.72C762.05 633.6 748.52 640.52 731.8 642.38C722.33 643.44 713.77 647.58 705.68 652.72C701.43 655.42 696.94 658.05 692.2 659.65C680.93 663.46 671.15 656.39 670.45 644.47C669.66 630.93 680.78 618.94 695.14 618.41C699.91 618.24 704.75 619.18 709.52 619.9C714.62 620.67 719.64 621.04 724.53 619.02C730.01 616.75 734.22 613.13 734.64 606.9C735.06 600.5 730.99 596.63 725.64 594.12C723.27 593.01 720.63 592.33 718.04 591.83C714.96 591.24 711.81 590.96 708.67 590.72C696.08 589.78 685.14 584.99 676.37 575.98C664.73 564.02 651.52 554.6 636.17 547.95C631.83 546.07 627.89 542.94 624.25 539.82C618.26 534.67 615.27 527.94 615.6 519.9C615.63 519.17 615.57 518.44 615.66 517.73C618.77 492.99 611.26 470.31 601.8 448.13C599.57 442.91 596.17 437.92 592.32 433.72C586.71 427.61 579.03 426.57 572.4 429.77C565.81 432.95 561.39 440.59 562.44 448.41C562.97 452.4 564.17 456.58 566.16 460.04C572.64 471.31 576.61 483.31 579.05 496.05C580.5 503.61 583.47 510.87 585.62 518.3C587.94 526.33 586.44 533.63 581.01 540.04C575.49 546.56 566.81 549.42 559.5 546.97C551.03 544.13 546.4 537.95 545.61 529.25C545.2 524.73 545.62 520.05 546.22 515.52C547.74 504 545.35 493.45 539.46 483.5C536.63 478.72 534.09 473.76 531.64 468.77C528.2 461.76 527.66 454.31 529.41 446.8C533.2 430.54 541.03 416.67 554.06 405.93C559.59 401.37 565.75 398.28 572.82 396.94C576.86 396.18 580.94 395.48 584.85 394.24C590.75 392.36 595.07 388.64 595.99 382.13C596.94 375.4 593.99 370.23 588.46 366.78C585.44 364.9 581.88 363.82 578.47 362.68C576.43 362 574.21 361.77 572.04 361.56C555.05 359.92 543.3 350.83 536.09 335.76C529.43 321.84 520.74 309.52 509.57 298.85C503.72 293.27 499.79 286.31 496.68 278.86C494.82 274.41 493.01 269.85 490.44 265.8C487.17 260.64 482.39 257.23 475.82 258.45C469.59 259.6 466.63 264.23 464.96 269.89C464.62 271.05 464.26 272.22 464.12 273.42C462.53 286.75 455.47 296.73 445.24 304.92C441.48 307.93 437.95 311.3 434.67 314.83C427.91 322.09 425.75 330.8 427.91 340.41C430.87 353.57 436.22 365.54 445.15 375.93C452.07 383.98 458.57 392.42 464.74 401.06C470.2 408.7 476.9 413.99 486.18 416.02C489.7 416.79 493.24 417.88 496.48 419.42C504.84 423.39 508.41 431.74 504.43 440.06C498.02 453.48 487.2 462.22 472.53 465.03C461.62 467.12 453.74 460.17 452.97 448.94C452.79 446.3 453.02 443.62 453.06 440.96C453.29 425.75 446.53 417.4 431.74 414.58C428.65 413.99 425.53 413.49 422.5 412.68C412.36 409.98 406.87 403.64 405.88 393.19C405.54 389.6 405.54 385.89 406.07 382.34C407.72 371.27 405.9 360.66 402.52 350.18C400.59 344.2 398.68 338.2 396.87 332.18C392.74 318.37 396.24 306.91 407.65 297.98C411.84 294.7 416.13 291.55 420.3 288.24C426.61 283.23 431.83 277.24 435.95 270.29C442.55 259.14 442.25 248.25 434.76 237.63C432.81 234.86 430.88 232.07 428.79 229.41C423.07 222.11 420.24 213.79 419.8 204.58C419.54 199.26 419.28 193.95 418.91 188.64C418.24 179.13 413.46 172.18 405.09 167.92C400.59 165.63 395.81 163.73 390.95 162.34C373.75 157.42 361.08 147.16 352.28 131.57C349.24 126.18 345.28 121.01 340.74 116.84C334.38 111 326.53 108.55 317.89 111.89C303.99 117.26 301.4 133.54 313.16 142.64C316.74 145.41 321.19 147.03 325.15 149.34C328.68 151.4 332.54 153.19 335.46 155.94C343.48 163.49 341.33 174.55 331.25 178.97C325.76 181.38 319.82 182.08 314.17 180.51C303.72 177.6 293.43 174.08 283.2 170.47C280.56 169.54 278.19 167.53 276 165.67C267.08 158.1 265.34 149.53 270.62 139.12C272.81 134.81 275.57 130.79 277.7 126.46C282.74 116.24 280.46 107.16 271.74 101.74C263.11 96.3799 252.18 98.2399 246.01 107.04C242.9 111.48 240.77 116.87 239.28 122.13C236.84 130.73 235.25 139.57 233.36 148.32C232.95 150.21 232.72 152.14 232.56 154.07C231.37 168.6 236.1 176.87 249.21 183.15C251.82 184.4 254.62 185.28 257.19 186.61C260.4 188.27 263.78 189.82 266.52 192.1C274.8 199 274.08 209.4 264.99 215.16C262.6 216.68 259.75 217.88 256.98 218.3C252.47 218.97 247.83 219.19 243.27 219.05C230.31 218.63 221.34 212.48 216.94 200.03C215.49 195.93 214.12 191.75 212.15 187.89C206.74 177.26 196.87 175.77 188.56 184.28C185.7 187.21 183.27 190.57 180.75 193.81C174.35 202.04 165.94 205.78 155.82 203.33C138.7 199.19 121.67 194.6 104.75 189.69C96.4099 187.27 89.9799 181.63 84.5999 174.84C81.1499 170.48 77.9199 165.89 74.0399 161.94C60.4899 148.15 42.1999 152.18 35.3199 170.26C31.8399 179.42 30.9999 188.78 34.7299 197.91C41.0699 213.44 43.4699 229.49 42.8599 246.17C42.4899 256.28 45.1299 265.79 49.8799 274.75C52.2599 279.23 54.4499 283.83 56.4299 288.49C57.4599 290.91 58.1699 293.56 58.4599 296.16C60.1399 311.25 46.7299 320.92 32.7699 314.81C27.1299 312.34 23.4999 307.93 20.9499 302.55C16.5399 293.26 13.9999 283.42 13.5299 273.18C13.0199 262.07 12.8299 250.93 12.8799 239.81C12.9299 229.18 11.0499 219.06 5.70992 209.83C-1.23008 197.84 -1.72008 185.66 3.44992 172.91C6.53992 165.3 8.79992 157.35 11.8299 149.71C18.1299 133.81 30.0299 125.04 46.9899 123.48C52.9899 122.93 59.0799 123.06 65.1099 123.29C74.7099 123.66 82.9799 127.44 89.6899 134.29C94.0899 138.78 98.2499 143.5 102.34 148.28C124.21 173.84 160.58 176.37 185.53 153.68C189.56 150.01 192.63 145.17 195.69 140.57C201.97 131.11 207.96 121.46 214.03 111.86C215.58 109.41 217.22 106.97 218.34 104.33C220.67 98.8299 220.68 93.2999 216.25 88.7899C211.85 84.3099 206.39 84.1099 200.77 86.2599C199.2 86.8599 197.7 87.6899 196.26 88.5499C194.81 89.4199 193.48 90.4799 192.08 91.4299C178.69 100.63 168.35 99.6199 157.74 87.0299C152.01 80.2299 146.95 72.7199 142.48 65.0199C136.11 54.0399 128.96 43.9099 119.19 35.6199C115.19 32.2299 111.68 28.0299 108.75 23.6699C104.98 18.0699 104.36 11.9099 108.7 6.04991C112.46 0.969913 119.43 -1.20009 126.38 0.719913C134.61 2.98991 141.58 7.62991 146.14 14.6899C151.35 22.7699 155.46 31.5599 160.01 40.0599C162.74 45.1699 165.17 50.4599 168.15 55.4099C170.83 59.8499 174.8 63.0199 179.78 64.8199C185.54 66.8899 190.86 66.1599 195.29 61.9399C199.91 57.5299 201.38 51.8499 198.94 45.9899C197.41 42.3199 194.57 39.1399 192.06 35.9499C189.38 32.5399 185.9 29.6799 183.64 26.0299C177.94 16.8299 182.54 6.97991 193.23 5.42991C197.48 4.81991 201.9 5.44991 206.24 5.46991C214.19 5.48991 222.24 6.25991 230.08 5.30991C243.63 3.65991 256.61 5.19991 269.4 9.52991C286.12 15.1899 302.9 20.6999 319.53 26.6099C323.54 28.0399 327.62 30.1999 330.74 33.0399C339.7 41.1899 336.56 54.0099 325.01 57.6699C318.48 59.7399 311.97 58.8499 305.77 56.5999C299.42 54.2899 293.33 51.2899 287.12 48.5799C277.15 44.2299 267.3 39.5499 257.15 35.6599C252.28 33.7999 246.86 32.7099 241.65 32.5699C233.52 32.3499 227.15 37.4199 225.17 44.3399C223.4 50.5299 226.02 57.4599 232.37 61.9799C235.08 63.9099 238.26 65.3099 241.42 66.3999C244.83 67.5799 248.43 68.3099 252 68.8899C263.77 70.8299 274.92 74.6099 286.04 78.8599C295.24 82.3799 304.88 85.0099 314.54 87.0099C325.1 89.1999 334.63 85.9699 342.78 78.8299C345.33 76.5999 347.8 74.2399 350.59 72.3499C353.36 70.4699 356.32 68.6099 359.47 67.5899C367.63 64.9599 375.43 69.7699 376.75 78.2399C377.26 81.4999 376.79 84.9699 376.4 88.3099C376.04 91.4199 375.07 94.4599 374.57 97.5599C372.66 109.42 376.5 119.27 386.14 126.21C392.37 130.7 399.46 134.01 406.2 137.8C421.12 146.18 437 150.53 453.38 148.87" fill="#05385E"/>
<path d="M141.06 464.43C137.33 464.43 133.92 464.73 130.57 464.37C119.77 463.22 114.45 454.5 118.67 444.56C120.35 440.61 122.66 436.75 125.41 433.45C135.45 421.34 136.43 407.37 133.54 392.94C132.55 387.98 129.47 383.16 126.41 378.96C123.61 375.12 119.44 372.31 116.06 368.86C112.53 365.24 108.71 361.74 105.94 357.58C100.82 349.89 102.12 342.27 108.81 336.03C114.89 330.35 122.68 330.02 129.99 335.37C132.31 337.07 134.31 339.23 136.34 341.3C138.2 343.2 139.83 345.32 141.67 347.25C151.42 357.46 159.13 358.67 171.46 351.91C174.85 350.05 178 347.67 181.54 346.17C185.49 344.49 189.67 342.92 193.88 342.39C199.6 341.67 204.37 344.22 207.11 349.45C209.76 354.52 208.59 359.59 205.12 363.68C202.52 366.74 199.18 369.36 195.74 371.48C191.64 374 187.11 375.84 182.72 377.87C164.71 386.2 158.31 401.57 156.99 420.06C156.97 420.3 156.99 420.54 157 420.79C157.43 428.78 161.22 434.35 167.69 436.51C173.78 438.55 180.69 436.13 185.34 429.6C188.12 425.7 190.03 421.18 192.32 416.93C195.06 411.83 197.48 406.51 200.6 401.65C205.42 394.16 212.07 388.65 220.45 385.32C227 382.72 233.64 382.32 240.33 384.5C245.16 386.08 249.82 388.18 254.71 389.53C258.38 390.55 262.34 391.46 266.07 391.15C275.71 390.34 280.41 380.88 275.79 372.39C273.36 367.94 269.47 365.11 264.95 363.13C260.74 361.29 256.37 359.82 252.21 357.87C241.66 352.93 237.99 345.97 239.55 334.49C239.94 331.62 240.46 328.73 240.45 325.85C240.41 316.55 234.93 310.53 225.63 310.77C220.47 310.9 215.25 312.69 210.24 314.3C204.96 315.99 199.96 318.55 194.71 320.36C186.61 323.16 178.22 324.18 169.67 323.15C151.1 320.92 139.8 306.82 141.94 288.23C143.23 277.02 147.2 266.54 153.15 257.04C157.1 250.73 161.79 244.77 166.84 239.3C173.1 232.51 181.39 228.98 190.45 227.51C197.59 226.35 204.51 227.12 210.59 231.43C220.37 238.35 220.42 251.06 210.29 257.43C205.89 260.19 200.51 261.42 195.53 263.22C192.13 264.45 188.59 265.32 185.23 266.65C183.23 267.44 181.33 268.61 179.61 269.92C172.96 274.98 170.88 282.18 174.12 288.38C177.19 294.25 183.89 296.68 191.79 294.3C195.93 293.05 199.96 291.28 203.83 289.32C212.33 285.03 221.14 281.86 230.59 280.51C231.07 280.44 231.54 280.33 232.02 280.24C249.02 276.88 251.76 273.97 254.17 256.7C254.44 254.79 254.7 252.86 255.13 250.98C257.68 239.75 266.01 234.89 276.94 238.59C281.26 240.06 285.38 242.23 289.4 244.43C310.89 256.21 333.95 258.2 357.75 255.56C364.89 254.77 371.01 251.26 377.1 247.71C380.63 245.66 384.28 243.5 388.16 242.41C399.45 239.26 408.93 248.18 406.12 259.59C405.01 264.08 402.43 268.61 399.39 272.16C391.6 281.28 381.21 285.96 369.26 285.67C360.61 285.47 351.96 284.02 343.36 282.82C333.07 281.38 322.86 279.27 312.53 278.14C306.57 277.49 300.41 277.66 294.44 278.37C281.36 279.92 272.37 288.78 270.18 301.71C267.63 316.76 270.79 330.11 282.43 340.71C286.36 344.29 290.3 347.89 294.43 351.23C305.66 360.33 311.03 371.71 308.8 386.31C306.95 398.4 307.57 410.32 310.39 422.3C313.91 437.27 308.17 449.32 296.88 459.06C293.12 462.3 288.79 464.31 283.67 464.27C274.08 464.2 267.82 456.8 269.63 447.42C270.13 444.83 271.24 442.37 272.09 439.85C272.86 437.56 273.87 435.33 274.4 432.99C276.49 423.71 271.84 416.2 262.39 415.11C256.76 414.46 250.64 414.76 245.23 416.34C238.6 418.28 232.12 421.4 226.25 425.09C219.53 429.32 213.46 434.61 207.29 439.67C203.32 442.93 200.17 446.93 198.97 452.13C197.9 456.73 198.89 460.86 202.31 464.12C205.87 467.51 210.18 467.57 214.5 465.85C216.73 464.96 218.79 463.64 220.91 462.47C223.02 461.3 225.03 459.9 227.22 458.9C232.59 456.45 237.96 455.77 242.84 460.04C247.3 463.95 248.58 470.38 245.83 476.73C244.61 479.56 242.8 482.26 240.76 484.58C238.38 487.29 235.65 489.77 232.75 491.92C221.89 499.97 214.64 510.56 210.01 523.13C208.84 526.3 207.66 529.55 205.88 532.39C203.85 535.62 201.47 538.8 198.64 541.34C194.4 545.15 189.25 546.39 183.82 543.84C178.35 541.27 174.68 536.84 175.03 530.79C175.3 526.13 177.09 521.47 178.72 517C180.04 513.39 182.29 510.14 183.84 506.6C187.99 497.18 186.23 488.57 179.63 480.96C169.38 469.14 156.95 462.19 141.04 464.43" fill="#05385E"/>
<mask id="path-3-inside-1_737_9209" fill="white">
<path d="M69.3599 453.73C65.0799 452.2 60.4699 451.25 56.5899 449.03C46.9099 443.49 37.1499 438.24 26.4599 434.87C25.0899 434.44 23.7899 433.72 22.5299 433.02C12.0899 427.27 9.56992 418.23 15.5399 408.02C15.6599 407.81 15.7599 407.58 15.9099 407.4C28.4899 392.36 36.8599 375.03 43.8399 356.86C46.7399 349.3 52.2699 343.35 58.7799 338.49C65.2499 333.67 72.0899 333.3 77.6099 337.29C83.3899 341.46 85.6899 348.79 83.4699 356.05C81.2899 363.2 76.6999 368.82 71.8499 374.25C68.1399 378.39 63.9299 382.14 60.5899 386.55C57.8699 390.14 55.5199 394.26 54.0499 398.5C52.1299 404.05 54.6899 410.57 58.8799 413.41C63.1099 416.29 69.4799 415.71 74.3199 411.58C77.4399 408.92 80.0899 405.73 83.0199 402.86C89.1299 396.87 95.9999 395.36 101.25 398.78C106.84 402.42 109.04 410.06 106.09 417.61C101.44 429.54 93.8599 439.53 84.3299 447.99C80.2099 451.65 75.1899 453.36 69.3399 453.77"/>
</mask>
<path d="M56.5899 449.03L55.5965 450.766L55.5967 450.766L56.5899 449.03ZM26.4599 434.87L27.0612 432.963L27.0589 432.962L26.4599 434.87ZM22.5299 433.02L23.5012 431.272L23.4948 431.268L22.5299 433.02ZM15.5399 408.02L17.2664 409.03L17.2715 409.021L17.2764 409.012L15.5399 408.02ZM15.9099 407.4L14.3758 406.117L14.3735 406.12L15.9099 407.4ZM43.8399 356.86L45.7069 357.577L45.7072 357.576L43.8399 356.86ZM58.7799 338.49L57.5851 336.886L57.5835 336.887L58.7799 338.49ZM77.6099 337.29L76.4383 338.911L76.4398 338.912L77.6099 337.29ZM83.4699 356.05L81.5573 355.465L81.5569 355.467L83.4699 356.05ZM71.8499 374.25L73.3394 375.585L73.3416 375.582L71.8499 374.25ZM60.5899 386.55L62.184 387.758L62.1843 387.758L60.5899 386.55ZM54.0499 398.5L52.1603 397.845L52.1598 397.846L54.0499 398.5ZM58.8799 413.41L60.0055 411.757L60.0021 411.755L58.8799 413.41ZM74.3199 411.58L73.0224 410.058L73.0217 410.059L74.3199 411.58ZM83.0199 402.86L84.4194 404.289L84.42 404.288L83.0199 402.86ZM101.25 398.78L100.158 400.456L100.159 400.456L101.25 398.78ZM106.09 417.61L104.227 416.882L104.226 416.884L106.09 417.61ZM84.3299 447.99L83.0022 446.494L83.0016 446.495L84.3299 447.99ZM69.3599 453.73L70.0332 451.847C67.8739 451.075 65.4902 450.402 63.4432 449.737C61.3118 449.044 59.3438 448.301 57.5832 447.294L56.5899 449.03L55.5967 450.766C57.7161 451.979 59.993 452.821 62.2066 453.541C64.5046 454.288 66.566 454.855 68.6867 455.613L69.3599 453.73ZM56.5899 449.03L57.5834 447.294C47.8904 441.747 37.9714 436.402 27.0612 432.963L26.4599 434.87L25.8586 436.778C36.3284 440.078 45.9295 445.233 55.5965 450.766L56.5899 449.03ZM26.4599 434.87L27.0589 432.962C25.9159 432.603 24.7926 431.989 23.5012 431.272L22.5299 433.02L21.5586 434.768C22.7872 435.451 24.2639 436.277 25.861 436.778L26.4599 434.87ZM22.5299 433.02L23.4948 431.268C18.5943 428.569 15.8111 425.247 14.8074 421.654C13.8045 418.065 14.4692 413.814 17.2664 409.03L15.5399 408.02L13.8134 407.011C10.6407 412.437 9.58035 417.811 10.9549 422.731C12.3288 427.648 16.0256 431.721 21.5651 434.772L22.5299 433.02ZM15.5399 408.02L17.2764 409.012C17.3234 408.93 17.3649 408.852 17.3941 408.797C17.4275 408.734 17.4453 408.7 17.4639 408.667C17.5017 408.598 17.4923 408.625 17.4464 408.68L15.9099 407.4L14.3735 406.12C14.1776 406.355 14.0432 406.587 13.9634 406.731C13.8229 406.985 13.8827 406.889 13.8034 407.028L15.5399 408.02ZM15.9099 407.4L17.444 408.683C30.2271 393.4 38.6919 375.838 45.7069 357.577L43.8399 356.86L41.9729 356.143C35.0279 374.222 26.7527 391.32 14.3758 406.117L15.9099 407.4ZM43.8399 356.86L45.7072 357.576C48.425 350.491 53.6439 344.82 59.9764 340.093L58.7799 338.49L57.5835 336.887C50.896 341.88 45.0548 348.109 41.9726 356.144L43.8399 356.86ZM58.7799 338.49L59.9748 340.094C65.8924 335.685 71.7653 335.533 76.4383 338.911L77.6099 337.29L78.7815 335.669C72.4146 331.067 64.6074 331.655 57.5851 336.886L58.7799 338.49ZM77.6099 337.29L76.4398 338.912C81.4694 342.541 83.5478 348.956 81.5573 355.465L83.4699 356.05L85.3825 356.635C87.832 348.624 85.3104 340.379 78.7801 335.668L77.6099 337.29ZM83.4699 356.05L81.5569 355.467C79.516 362.161 75.1996 367.498 70.3583 372.918L71.8499 374.25L73.3416 375.582C78.2003 370.143 83.0639 364.24 85.383 356.633L83.4699 356.05ZM71.8499 374.25L70.3605 372.915C68.5377 374.949 66.6128 376.865 64.6412 378.911C62.6949 380.93 60.7398 383.039 58.9956 385.343L60.5899 386.55L62.1843 387.758C63.78 385.651 65.6 383.68 67.5212 381.687C69.4171 379.72 71.4521 377.691 73.3394 375.585L71.8499 374.25ZM60.5899 386.55L58.9958 385.342C56.1731 389.068 53.7112 393.372 52.1603 397.845L54.0499 398.5L55.9396 399.155C57.3287 395.148 59.5667 391.212 62.184 387.758L60.5899 386.55ZM54.0499 398.5L52.1598 397.846C49.932 404.286 52.8499 411.739 57.7578 415.066L58.8799 413.41L60.0021 411.755C56.5299 409.401 54.3278 403.814 55.94 399.154L54.0499 398.5ZM58.8799 413.41L57.7543 415.063C62.8785 418.552 70.2396 417.691 75.6181 413.101L74.3199 411.58L73.0217 410.059C68.7202 413.729 63.3414 414.028 60.0055 411.757L58.8799 413.41ZM74.3199 411.58L75.6175 413.102C77.2593 411.702 78.7599 410.178 80.189 408.679C81.6394 407.157 82.9872 405.692 84.4194 404.289L83.0199 402.86L81.6204 401.431C80.1226 402.898 78.6804 404.464 77.2933 405.919C75.8849 407.397 74.5005 408.798 73.0224 410.058L74.3199 411.58ZM83.0199 402.86L84.42 404.288C90.1747 398.647 96.0117 397.755 100.158 400.456L101.25 398.78L102.342 397.104C95.9881 392.965 88.0852 395.093 81.6198 401.432L83.0199 402.86ZM101.25 398.78L100.159 400.456C104.813 403.487 106.897 410.048 104.227 416.882L106.09 417.61L107.953 418.338C111.182 410.072 108.867 401.353 102.341 397.104L101.25 398.78ZM106.09 417.61L104.226 416.884C99.7109 428.469 92.3384 438.206 83.0022 446.494L84.3299 447.99L85.6577 449.486C95.3814 440.854 103.169 430.611 107.953 418.336L106.09 417.61ZM84.3299 447.99L83.0016 446.495C79.291 449.791 74.7286 451.387 69.2001 451.775L69.3399 453.77L69.4797 455.765C75.6513 455.333 81.1288 453.509 85.6582 449.485L84.3299 447.99Z" fill="#05385E" mask="url(#path-3-inside-1_737_9209)"/>
<mask id="path-5-inside-2_737_9209" fill="white">
<path d="M376.15 364.89C375.17 375.57 374.03 386.88 373.12 398.21C372.25 409.05 371.67 419.9 370.87 430.75C370.59 434.59 370.36 438.48 369.59 442.24C368.63 446.97 365.69 450.51 361.47 452.86C355.16 456.36 348.67 455.02 345.23 448.71C343.21 445.01 341.97 440.58 341.6 436.36C340.39 422.64 339.32 408.88 339.05 395.12C338.92 388.71 340.62 382.24 341.73 375.83C342.35 372.27 343.7 368.84 344.36 365.28C346.36 354.59 342.29 346.2 332.54 341.25C328.68 339.29 324.33 338.25 320.53 336.18C316.13 333.78 311.44 331.35 308.03 327.82C299.72 319.22 303.76 306.94 315.55 304.67C319.95 303.82 324.92 303.65 329.18 304.82C338.23 307.29 347.18 310.38 355.79 314.11C362.69 317.09 367.16 323 369.65 330.16C373.5 341.2 375.56 352.58 376.15 364.9"/>
</mask>
<path d="M373.12 398.21L371.127 398.05L371.126 398.05L373.12 398.21ZM370.87 430.75L368.876 430.603L368.875 430.604L370.87 430.75ZM369.59 442.24L367.631 441.839L367.63 441.842L369.59 442.24ZM361.47 452.86L362.44 454.609L362.443 454.607L361.47 452.86ZM345.23 448.71L346.986 447.752L346.986 447.751L345.23 448.71ZM341.6 436.36L343.592 436.185L343.592 436.184L341.6 436.36ZM339.05 395.12L341.05 395.081L341.05 395.079L339.05 395.12ZM341.73 375.83L339.76 375.487L339.759 375.489L341.73 375.83ZM344.36 365.28L342.394 364.912L342.394 364.915L344.36 365.28ZM332.54 341.25L331.635 343.033L331.635 343.033L332.54 341.25ZM320.53 336.18L319.572 337.936L319.573 337.936L320.53 336.18ZM308.03 327.82L309.469 326.43L309.468 326.43L308.03 327.82ZM315.55 304.67L315.928 306.634L315.929 306.634L315.55 304.67ZM329.18 304.82L328.65 306.748L328.653 306.749L329.18 304.82ZM355.79 314.11L354.995 315.945L354.997 315.946L355.79 314.11ZM369.65 330.16L367.761 330.817L367.762 330.818L369.65 330.16ZM376.15 364.89L374.158 364.707C373.181 375.363 372.038 386.705 371.127 398.05L373.12 398.21L375.114 398.37C376.023 387.054 377.159 375.777 378.142 365.073L376.15 364.89ZM373.12 398.21L371.126 398.05C370.258 408.869 369.669 419.836 368.876 430.603L370.87 430.75L372.865 430.897C373.671 419.964 374.242 409.231 375.114 398.37L373.12 398.21ZM370.87 430.75L368.875 430.604C368.592 434.496 368.369 438.235 367.631 441.839L369.59 442.24L371.549 442.641C372.351 438.725 372.589 434.684 372.865 430.895L370.87 430.75ZM369.59 442.24L367.63 441.842C366.804 445.912 364.291 449 360.497 451.112L361.47 452.86L362.443 454.607C367.09 452.02 370.456 448.028 371.55 442.638L369.59 442.24ZM361.47 452.86L360.5 451.111C357.688 452.671 355 453.065 352.743 452.519C350.515 451.981 348.469 450.473 346.986 447.752L345.23 448.71L343.474 449.667C345.431 453.257 348.35 455.573 351.804 456.408C355.23 457.235 358.942 456.549 362.44 454.609L361.47 452.86ZM345.23 448.71L346.986 447.751C345.112 444.319 343.941 440.161 343.592 436.185L341.6 436.36L339.608 436.534C339.999 440.998 341.308 445.7 343.475 449.668L345.23 448.71ZM341.6 436.36L343.592 436.184C342.383 422.472 341.318 408.769 341.05 395.081L339.05 395.12L337.05 395.159C337.322 408.991 338.397 422.807 339.608 436.536L341.6 436.36ZM339.05 395.12L341.05 395.079C340.925 388.926 342.55 382.818 343.701 376.171L341.73 375.83L339.759 375.489C338.69 381.662 336.915 388.494 337.05 395.16L339.05 395.12ZM341.73 375.83L343.7 376.173C343.99 374.512 344.453 372.862 344.954 371.102C345.445 369.376 345.976 367.534 346.327 365.644L344.36 365.28L342.394 364.915C342.084 366.585 341.61 368.239 341.107 370.007C340.613 371.742 340.09 373.588 339.76 375.487L341.73 375.83ZM344.36 365.28L346.326 365.648C347.39 359.963 346.862 354.742 344.652 350.232C342.441 345.721 338.633 342.1 333.445 339.466L332.54 341.25L331.635 343.033C336.197 345.349 339.299 348.398 341.06 351.993C342.823 355.588 343.331 359.907 342.394 364.912L344.36 365.28ZM332.54 341.25L333.446 339.467C331.394 338.425 329.225 337.634 327.212 336.882C325.157 336.115 323.246 335.382 321.487 334.423L320.53 336.18L319.573 337.936C321.614 339.048 323.778 339.87 325.813 340.63C327.89 341.405 329.826 342.115 331.635 343.033L332.54 341.25ZM320.53 336.18L321.488 334.424C316.988 331.97 312.619 329.691 309.469 326.43L308.03 327.82L306.592 329.209C310.262 333.008 315.272 335.59 319.572 337.936L320.53 336.18ZM308.03 327.82L309.468 326.43C305.781 322.615 304.959 318.155 306.154 314.491C307.351 310.821 310.676 307.645 315.928 306.634L315.55 304.67L315.172 302.706C308.635 303.965 304.044 308.063 302.351 313.251C300.656 318.445 301.969 324.425 306.592 329.21L308.03 327.82ZM315.55 304.67L315.929 306.634C320.143 305.819 324.783 305.686 328.65 306.748L329.18 304.82L329.71 302.891C325.058 301.614 319.757 301.82 315.171 302.706L315.55 304.67ZM329.18 304.82L328.653 306.749C337.619 309.196 346.478 312.255 354.995 315.945L355.79 314.11L356.585 312.275C347.882 308.504 338.841 305.384 329.707 302.89L329.18 304.82ZM355.79 314.11L354.997 315.946C361.249 318.646 365.401 324.03 367.761 330.817L369.65 330.16L371.539 329.503C368.919 321.969 364.131 315.534 356.583 312.274L355.79 314.11ZM369.65 330.16L367.762 330.818C371.541 341.657 373.57 352.845 374.152 364.995L376.15 364.9L378.148 364.804C377.55 352.315 375.459 340.743 371.539 329.501L369.65 330.16Z" fill="#05385E" mask="url(#path-5-inside-2_737_9209)"/>
<path d="M374.64 576.34C368.11 576.34 361.58 576.51 355.06 576.31C341.35 575.88 329.87 570.11 319.93 560.99C311.91 553.63 308.03 544.37 309.46 533.63C311.33 519.66 312.22 505.78 310.68 491.71C309.89 484.46 312.04 477.78 317.62 472.62C326 464.87 337.51 467.21 342.04 477.69C344.7 483.85 345.01 490.4 344.03 496.94C343.14 502.91 341.76 508.81 340.74 514.77C339.22 523.68 339.92 532.11 346.19 539.37C351.76 545.82 358.86 549.18 367.22 549.13C373.96 549.09 380.68 547.93 387.43 547.54C392.23 547.27 397.06 547.32 401.86 547.54C403.73 547.63 405.67 548.35 407.39 549.18C412.7 551.74 416.61 555.5 416.67 561.88C416.72 567.4 412.76 572.6 406.33 574.42C401.73 575.72 396.85 576.26 392.06 576.55C386.28 576.9 380.46 576.63 374.65 576.63V576.33L374.64 576.34Z" fill="#05385E"/>
<mask id="path-8-inside-3_737_9209" fill="white">
<path d="M103.24 218.38C108.51 218.85 114.1 218.91 119.52 219.93C132.54 222.39 136.54 232.62 129.03 243.66C127.54 245.85 125.83 247.9 124.08 249.89C117.46 257.41 114.99 266.15 115.99 276.05C116.5 281.09 117.22 286.19 116.86 291.19C116.58 295.14 115.52 299.42 113.52 302.79C107.63 312.72 94.2699 312.96 87.3899 303.65C84.3999 299.6 83.2399 294.91 83.3199 290.01C83.3999 285.2 83.8299 280.37 84.3599 275.58C85.2299 267.63 83.7599 260.24 79.8799 253.25C77.8899 249.67 75.8499 246.06 74.3999 242.25C70.0999 230.9 75.1699 221.76 87.0699 219.7C92.2699 218.8 97.6199 218.81 103.21 218.39"/>
</mask>
<path d="M119.52 219.93L119.891 217.965L119.89 217.964L119.52 219.93ZM129.03 243.66L130.683 244.785L130.684 244.785L129.03 243.66ZM124.08 249.89L125.581 251.211L125.582 251.211L124.08 249.89ZM115.99 276.05L114 276.251L114 276.251L115.99 276.05ZM116.86 291.19L114.865 291.046L114.865 291.048L116.86 291.19ZM113.52 302.79L111.8 301.769L111.8 301.77L113.52 302.79ZM87.3899 303.65L85.7809 304.838L85.7814 304.839L87.3899 303.65ZM83.3199 290.01L81.3202 289.977L81.3202 289.977L83.3199 290.01ZM84.3599 275.58L86.3478 275.8L86.348 275.797L84.3599 275.58ZM79.8799 253.25L81.6286 252.279L81.628 252.278L79.8799 253.25ZM74.3999 242.25L72.5296 242.958L72.5307 242.961L74.3999 242.25ZM87.0699 219.7L86.7288 217.729L86.7288 217.729L87.0699 219.7ZM103.24 218.38L103.062 220.372C108.55 220.861 113.851 220.898 119.15 221.895L119.52 219.93L119.89 217.964C114.349 216.922 108.47 216.838 103.418 216.388L103.24 218.38ZM119.52 219.93L119.149 221.895C125.221 223.042 128.757 225.902 130.115 229.317C131.48 232.748 130.896 237.361 127.376 242.535L129.03 243.66L130.684 244.785C134.674 238.918 135.845 232.897 133.832 227.838C131.813 222.762 126.839 219.277 119.891 217.965L119.52 219.93ZM129.03 243.66L127.376 242.535C125.956 244.623 124.31 246.6 122.578 248.569L124.08 249.89L125.582 251.211C127.35 249.2 129.124 247.077 130.683 244.785L129.03 243.66ZM124.08 249.89L122.579 248.568C115.56 256.542 112.949 265.847 114 276.251L115.99 276.05L117.98 275.849C117.031 266.453 119.36 258.278 125.581 251.211L124.08 249.89ZM115.99 276.05L114 276.251C114.522 281.409 115.209 286.269 114.865 291.046L116.86 291.19L118.855 291.334C119.231 286.111 118.478 280.77 117.98 275.849L115.99 276.05ZM116.86 291.19L114.865 291.048C114.6 294.784 113.598 298.739 111.8 301.769L113.52 302.79L115.24 303.811C117.441 300.101 118.56 295.496 118.855 291.331L116.86 291.19ZM113.52 302.79L111.8 301.77C106.695 310.376 95.0935 310.709 88.9984 302.461L87.3899 303.65L85.7814 304.839C93.4463 315.211 108.565 315.064 115.24 303.81L113.52 302.79ZM87.3899 303.65L88.9989 302.462C86.3203 298.834 85.2453 294.598 85.3196 290.043L83.3199 290.01L81.3202 289.977C81.2345 295.222 82.4795 300.366 85.7809 304.838L87.3899 303.65ZM83.3199 290.01L85.3196 290.043C85.3981 285.325 85.8204 280.566 86.3478 275.8L84.3599 275.58L82.372 275.36C81.8394 280.173 81.4017 285.075 81.3202 289.977L83.3199 290.01ZM84.3599 275.58L86.348 275.797C87.2626 267.44 85.7111 259.634 81.6286 252.279L79.8799 253.25L78.1312 254.221C81.8087 260.846 83.1971 267.82 82.3718 275.362L84.3599 275.58ZM79.8799 253.25L81.628 252.278C79.6184 248.663 77.6576 245.187 76.2691 241.538L74.3999 242.25L72.5307 242.961C74.0422 246.933 76.1613 250.677 78.1318 254.222L79.8799 253.25ZM74.3999 242.25L76.2702 241.541C74.2731 236.27 74.546 231.789 76.4051 228.468C78.2606 225.153 81.9035 222.624 87.411 221.671L87.0699 219.7L86.7288 217.729C80.3363 218.836 75.4942 221.906 72.9147 226.514C70.3388 231.116 70.2267 236.88 72.5296 242.958L74.3999 242.25ZM87.0699 219.7L87.411 221.671C92.49 220.792 97.5581 220.82 103.36 220.384L103.21 218.39L103.06 216.395C97.6817 216.8 92.0497 216.808 86.7288 217.729L87.0699 219.7Z" fill="#05385E" mask="url(#path-8-inside-3_737_9209)"/>
<path d="M327.32 233.12C321.07 233.16 315.48 231.95 310.9 227.81C302.77 220.48 304.86 209.53 315.23 206.07C318.85 204.86 322.79 204.34 326.62 204.05C336.98 203.26 346.45 200.07 355.31 194.69C359.63 192.07 364.11 189.53 368.81 187.73C377.14 184.54 385.09 187.11 389.31 193.71C393.6 200.42 392.83 208.68 386.46 214.9C383.26 218.03 379.26 221.18 375.08 222.31C360.16 226.34 345.01 229.51 329.93 232.97C329 233.18 328 233.08 327.31 233.12" fill="#05385E"/>
<mask id="path-11-inside-4_737_9209" fill="white">
<path d="M404.86 437.87C418.7 438.33 432.54 455.1 430.29 468.71C428.97 476.68 422.61 481.73 414.31 481.39C403.25 480.95 388.89 468.64 386.75 457.78C384.59 446.82 393.09 437.48 404.87 437.87"/>
</mask>
<path d="M430.29 468.71L432.263 469.037L432.263 469.036L430.29 468.71ZM414.31 481.39L414.392 479.392L414.389 479.392L414.31 481.39ZM386.75 457.78L388.712 457.394L388.712 457.393L386.75 457.78ZM404.86 437.87L404.793 439.869C410.962 440.074 417.391 443.964 422.066 449.632C426.741 455.3 429.318 462.329 428.317 468.384L430.29 468.71L432.263 469.036C433.512 461.481 430.293 453.32 425.152 447.086C420.009 440.851 412.598 436.126 404.926 435.871L404.86 437.87ZM430.29 468.71L428.317 468.383C427.169 475.316 421.726 479.692 414.392 479.392L414.31 481.39L414.228 483.389C423.494 483.768 430.771 478.045 432.263 469.037L430.29 468.71ZM414.31 481.39L414.389 479.392C409.48 479.196 403.542 476.306 398.486 471.974C393.431 467.642 389.662 462.216 388.712 457.394L386.75 457.78L384.788 458.167C385.977 464.205 390.459 470.363 395.884 475.011C401.308 479.659 408.08 483.144 414.23 483.389L414.31 481.39ZM386.75 457.78L388.712 457.393C386.829 447.836 394.164 439.517 404.804 439.869L404.87 437.87L404.936 435.871C392.016 435.444 382.351 445.804 384.788 458.167L386.75 457.78Z" fill="#05385E" mask="url(#path-11-inside-4_737_9209)"/>
<path d="M381.402 491.098C393.318 490.469 402.473 495.662 408.481 505.7L408.765 506.181C411.636 511.137 411.365 516.326 408.828 520.302C406.296 524.271 401.429 527.145 394.873 527.287C385.449 525.832 376.004 521.539 370.164 511.94C367.155 506.988 367.161 501.937 369.253 498.078C371.348 494.214 375.61 491.402 381.402 491.098Z" stroke="#05385E" stroke-width="2"/>
</g>
<defs>
<clipPath id="clip0_737_9209">
<rect width="857.46" height="660.65" fill="white"/>
</clipPath>
</defs>
</svg>
