<svg width="124" height="80" viewBox="0 0 124 80" fill="none" xmlns="http://www.w3.org/2000/svg">
<path d="M37.878 81.1251C36.7802 81.1251 35.7765 81.2126 34.7905 81.1076C31.6118 80.7721 30.0459 78.228 31.288 75.328C31.7825 74.1756 32.4624 73.0494 33.2718 72.0867C36.2268 68.5536 36.5153 64.4778 35.6647 60.2678C35.3733 58.8208 34.4667 57.4145 33.5661 56.1892C32.742 55.0688 31.5146 54.249 30.5198 53.2425C29.4808 52.1863 28.3565 51.1652 27.5412 49.9515C26.0342 47.708 26.4169 45.4848 28.3859 43.6643C30.1754 42.0072 32.4683 41.9109 34.6198 43.4718C35.3026 43.9677 35.8913 44.5979 36.4888 45.2018C37.0362 45.7562 37.516 46.3747 38.0575 46.9378C40.9272 49.9165 43.1965 50.2695 46.8256 48.2973C47.8234 47.7547 48.7505 47.0603 49.7924 46.6227C50.955 46.1325 52.1853 45.6745 53.4244 45.5199C55.108 45.3098 56.5119 46.0538 57.3184 47.5796C58.0983 49.0588 57.754 50.538 56.7327 51.7312C55.9674 52.624 54.9844 53.3884 53.9719 54.0069C52.7651 54.7421 51.4318 55.2789 50.1397 55.8712C44.8389 58.3014 42.9552 62.7856 42.5666 68.1801C42.5608 68.2501 42.5666 68.3202 42.5696 68.3931C42.6962 70.7242 43.8117 72.3492 45.716 72.9794C47.5084 73.5746 49.5422 72.8685 50.9108 70.9634C51.7291 69.8256 52.2913 68.5069 52.9653 67.2669C53.7717 65.779 54.484 64.2269 55.4023 62.809C56.821 60.6238 58.7782 59.0162 61.2447 58.0447C63.1726 57.2861 65.1269 57.1694 67.096 57.8055C68.5176 58.2664 69.8891 58.8791 71.3284 59.273C72.4086 59.5706 73.5741 59.836 74.672 59.7456C77.5093 59.5093 78.8926 56.7493 77.5328 54.2724C76.8176 52.9741 75.6727 52.1484 74.3423 51.5708C73.1032 51.0339 71.817 50.6051 70.5926 50.0361C67.4874 48.5949 66.4072 46.5643 66.8664 43.215C66.9812 42.3777 67.1342 41.5345 67.1313 40.6943C67.1195 37.981 65.5066 36.2247 62.7693 36.2947C61.2506 36.3326 59.7142 36.8549 58.2396 37.3246C56.6856 37.8176 55.2139 38.5645 53.6687 39.0926C51.2846 39.9095 48.8152 40.2071 46.2987 39.9066C40.8331 39.256 37.5071 35.1423 38.137 29.7186C38.5167 26.4481 39.6852 23.3906 41.4364 20.6189C42.599 18.778 43.9794 17.0392 45.4658 15.4433C47.3083 13.4623 49.7483 12.4324 52.4149 12.0036C54.5164 11.6651 56.5531 11.8898 58.3426 13.1472C61.2212 15.1661 61.2359 18.8743 58.2543 20.7327C56.9593 21.538 55.3758 21.8968 53.9101 22.422C52.9093 22.7808 51.8674 23.0346 50.8785 23.4227C50.2898 23.6532 49.7306 23.9945 49.2244 24.3767C47.2671 25.853 46.6549 27.9536 47.6085 29.7624C48.5121 31.475 50.4841 32.1839 52.8093 31.4896C54.0278 31.1249 55.2139 30.6085 56.353 30.0367C58.8548 28.785 61.4478 27.8602 64.2292 27.4663C64.3705 27.4459 64.5088 27.4138 64.6501 27.3876C69.6537 26.4073 70.4601 25.5583 71.1695 20.5198C71.2489 19.9625 71.3255 19.3994 71.452 18.8509C72.2026 15.5746 74.6543 14.1567 77.8713 15.2362C79.1428 15.665 80.3554 16.2981 81.5386 16.94C87.8637 20.3768 94.651 20.9574 101.656 20.1872C103.757 19.9567 105.559 18.9326 107.351 17.8969C108.39 17.2988 109.464 16.6686 110.606 16.3506C113.929 15.4316 116.72 18.034 115.893 21.3629C115.566 22.6729 114.807 23.9945 113.912 25.0302C111.619 27.691 108.561 29.0564 105.044 28.9718C102.498 28.9134 99.9518 28.4904 97.4206 28.1403C94.3919 27.7202 91.3869 27.1046 88.3464 26.7749C86.5923 26.5852 84.7792 26.6348 83.0221 26.842C79.1722 27.2942 76.5262 29.8791 75.8816 33.6514C75.1311 38.0423 76.0612 41.9372 79.4872 45.0297C80.6439 46.0742 81.8035 47.1245 83.0191 48.0989C86.3244 50.7539 87.905 54.074 87.2486 58.3335C86.7041 61.8608 86.8866 65.3385 87.7166 68.8336C88.7526 73.2011 87.0632 76.7167 83.7402 79.5584C82.6335 80.5036 81.3591 81.0901 79.8521 81.0784C77.0295 81.058 75.187 78.899 75.7198 76.1624C75.8669 75.4068 76.1936 74.6891 76.4438 73.9539C76.6704 73.2857 76.9677 72.6351 77.1237 71.9524C77.7389 69.245 76.3702 67.0539 73.5888 66.7359C71.9318 66.5463 70.1305 66.6338 68.5382 67.0948C66.5868 67.6608 64.6795 68.5711 62.9518 69.6476C60.9739 70.8817 59.1874 72.4251 57.3714 73.9013C56.2029 74.8524 55.2757 76.0194 54.9225 77.5365C54.6076 78.8786 54.899 80.0835 55.9056 81.0346C56.9534 82.0237 58.222 82.0412 59.4935 81.5394C60.1498 81.2797 60.7561 80.8946 61.3801 80.5532C62.0011 80.2119 62.5927 79.8034 63.2373 79.5117C64.8179 78.7969 66.3984 78.5985 67.8347 79.8443C69.1474 80.985 69.5242 82.861 68.7148 84.7136C68.3557 85.5393 67.8229 86.327 67.2225 87.0038C66.522 87.7945 65.7185 88.518 64.8649 89.1453C61.6685 91.4939 59.5347 94.5835 58.1719 98.2508C57.8276 99.1757 57.4803 100.124 56.9564 100.952C56.3589 101.895 55.6584 102.823 54.8254 103.564C53.5775 104.675 52.0617 105.037 50.4635 104.293C48.8535 103.543 47.7733 102.251 47.8763 100.486C47.9558 99.1261 48.4826 97.7665 48.9624 96.4624C49.3509 95.4092 50.0131 94.461 50.4694 93.4282C51.6908 90.6799 51.1728 88.1679 49.2302 85.9477C46.2134 82.4992 42.5549 80.4716 37.8721 81.1251" fill="#F8EDEB"/>
<mask id="path-2-inside-1_2018_6013" fill="#F8EDEB">
<path d="M16.7749 78.0037C15.5151 77.5574 14.1583 77.2802 13.0163 76.6325C10.1672 75.0162 7.29454 73.4845 4.14818 72.5013C3.74495 72.3759 3.36232 72.1658 2.99147 71.9616C-0.0813191 70.284 -0.823026 67.6466 0.934113 64.6678C0.969432 64.6066 0.998865 64.5395 1.04301 64.4869C4.74566 60.099 7.20919 55.043 9.2636 49.7419C10.1172 47.5362 11.7448 45.8003 13.6609 44.3824C15.5652 42.9762 17.5784 42.8682 19.2031 44.0323C20.9043 45.2489 21.5812 47.3874 20.9278 49.5056C20.2862 51.5916 18.9352 53.2312 17.5077 54.8154C16.4158 56.0233 15.1767 57.1173 14.1936 58.4039C13.393 59.4513 12.7014 60.6533 12.2687 61.8904C11.7036 63.5096 12.4571 65.4118 13.6903 66.2404C14.9353 67.0806 16.8102 66.9114 18.2347 65.7065C19.153 64.9304 19.933 63.9997 20.7954 63.1624C22.5937 61.4148 24.6158 60.9743 26.161 61.9721C27.8063 63.034 28.4538 65.263 27.5855 67.4657C26.2169 70.9463 23.9859 73.8609 21.1809 76.3291C19.9683 77.3969 18.4908 77.8958 16.769 78.0154"/>
</mask>
<path d="M13.0163 76.6325L12.7284 77.14L12.7284 77.1401L13.0163 76.6325ZM4.14818 72.5013L4.32221 71.9444L4.32152 71.9442L4.14818 72.5013ZM2.99147 71.9616L3.27294 71.4505L3.27107 71.4494L2.99147 71.9616ZM0.934113 64.6678L1.43671 64.9643L1.43963 64.9592L0.934113 64.6678ZM1.04301 64.4869L0.597065 64.1106L0.596378 64.1115L1.04301 64.4869ZM9.2636 49.7419L9.80767 49.9527L9.80777 49.9525L9.2636 49.7419ZM13.6609 44.3824L13.3142 43.913L13.3138 43.9134L13.6609 44.3824ZM19.2031 44.0323L18.8632 44.5066L18.8636 44.5069L19.2031 44.0323ZM20.9278 49.5056L20.3703 49.3335L20.3701 49.334L20.9278 49.5056ZM17.5077 54.8154L17.9406 55.2067L17.9412 55.206L17.5077 54.8154ZM14.1936 58.4039L14.6572 58.7583L14.6573 58.7582L14.1936 58.4039ZM12.2687 61.8904L11.7179 61.6977L11.7178 61.6981L12.2687 61.8904ZM13.6903 66.2404L14.0167 65.7567L14.0157 65.756L13.6903 66.2404ZM18.2347 65.7065L17.8581 65.2608L17.8579 65.261L18.2347 65.7065ZM20.7954 63.1624L21.2018 63.581L21.202 63.5809L20.7954 63.1624ZM26.161 61.9721L25.8445 62.4622L25.8445 62.4623L26.161 61.9721ZM27.5855 67.4657L27.0427 67.2517L27.0425 67.2522L27.5855 67.4657ZM21.1809 76.3291L20.7955 75.891L20.7953 75.8912L21.1809 76.3291ZM16.7749 78.0037L16.9697 77.4538C16.3343 77.2286 15.6334 77.0326 15.0304 76.8382C14.4028 76.636 13.823 76.4192 13.3041 76.125L13.0163 76.6325L12.7284 77.1401C13.3516 77.4935 14.0212 77.7391 14.6725 77.949C15.3483 78.1668 15.9557 78.3325 16.58 78.5537L16.7749 78.0037ZM13.0163 76.6325L13.3042 76.125C10.4513 74.5065 7.53245 72.9475 4.32221 71.9444L4.14818 72.5013L3.97414 73.0583C7.05664 74.0215 9.8831 75.5259 12.7284 77.14L13.0163 76.6325ZM4.14818 72.5013L4.32152 71.9442C3.98418 71.8392 3.65287 71.6597 3.27294 71.4505L2.99147 71.9616L2.71 72.4727C3.07177 72.6719 3.50572 72.9125 3.97483 73.0585L4.14818 72.5013ZM2.99147 71.9616L3.27107 71.4494C1.82717 70.6612 1.00828 69.6914 0.713188 68.6444C0.418486 67.5988 0.613468 66.3598 1.43669 64.9643L0.934113 64.6678L0.431536 64.3714C-0.502382 65.9546 -0.815116 67.5238 -0.410053 68.961C-0.00537717 70.3968 1.08297 71.5845 2.71186 72.4737L2.99147 71.9616ZM0.934113 64.6678L1.43963 64.9592C1.45347 64.9352 1.4657 64.9125 1.47429 64.8964C1.48414 64.878 1.48935 64.8682 1.49483 64.8584C1.50591 64.8385 1.50312 64.8464 1.48965 64.8624L1.04301 64.4869L0.596378 64.1115C0.538754 64.18 0.499183 64.2477 0.475674 64.2898C0.434242 64.3641 0.451935 64.3359 0.428595 64.3764L0.934113 64.6678ZM1.04301 64.4869L1.48896 64.8632C5.25135 60.4045 7.74287 55.2806 9.80767 49.9527L9.2636 49.7419L8.71953 49.531C6.6755 54.8053 4.23997 59.7935 0.597066 64.1106L1.04301 64.4869ZM9.2636 49.7419L9.80777 49.9525C10.6075 47.886 12.1435 46.2312 14.008 44.8515L13.6609 44.3824L13.3138 43.9134C11.3461 45.3694 9.62682 47.1865 8.71943 49.5313L9.2636 49.7419ZM13.6609 44.3824L14.0075 44.8518C15.751 43.5643 17.4844 43.5187 18.8632 44.5066L19.2031 44.0323L19.5429 43.558C17.6723 42.2177 15.3793 42.3881 13.3142 43.913L13.6609 44.3824ZM19.2031 44.0323L18.8636 44.5069C20.3454 45.5666 20.9553 47.4371 20.3703 49.3335L20.9278 49.5056L21.4854 49.6776C22.2072 47.3378 21.4632 44.9313 19.5425 43.5577L19.2031 44.0323ZM20.9278 49.5056L20.3701 49.334C19.7696 51.2863 18.4994 52.8432 17.0743 54.4248L17.5077 54.8154L17.9412 55.206C19.371 53.6192 20.8028 51.8969 21.4855 49.6771L20.9278 49.5056ZM17.5077 54.8154L17.0749 54.4241C16.5384 55.0176 15.9717 55.5766 15.3915 56.1734C14.8187 56.7625 14.2433 57.3778 13.7299 58.0497L14.1936 58.4039L14.6573 58.7582C15.127 58.1435 15.6627 57.5685 16.2282 56.9869C16.7862 56.413 17.3851 55.8211 17.9406 55.2067L17.5077 54.8154ZM14.1936 58.4039L13.73 58.0496C12.8993 59.1365 12.1745 60.3922 11.7179 61.6977L12.2687 61.8904L12.8195 62.083C13.2282 60.9144 13.8868 59.7662 14.6572 58.7583L14.1936 58.4039ZM12.2687 61.8904L11.7178 61.6981C11.061 63.5799 11.9221 65.7554 13.3649 66.7247L13.6903 66.2404L14.0157 65.756C12.992 65.0682 12.3461 63.4392 12.8196 62.0826L12.2687 61.8904ZM13.6903 66.2404L13.3639 66.724C14.8682 67.7393 17.0299 67.4898 18.6115 66.152L18.2347 65.7065L17.8579 65.261C16.5904 66.333 15.0024 66.422 14.0167 65.7567L13.6903 66.2404ZM18.2347 65.7065L18.6114 66.1521C19.0945 65.7439 19.536 65.2993 19.9567 64.8618C20.3835 64.4178 20.7803 63.9904 21.2018 63.581L20.7954 63.1624L20.3889 62.7438C19.9481 63.1717 19.5237 63.6283 19.1154 64.053C18.7008 64.4842 18.2933 64.893 17.8581 65.2608L18.2347 65.7065ZM20.7954 63.1624L21.202 63.5809C22.896 61.9347 24.6189 61.6709 25.8445 62.4622L26.161 61.9721L26.4775 61.4819C24.6126 60.2777 22.2915 60.8949 20.3887 62.7439L20.7954 63.1624ZM26.161 61.9721L25.8445 62.4623C27.2161 63.3476 27.8276 65.2606 27.0427 67.2517L27.5855 67.4657L28.1284 67.6797C29.08 65.2654 28.3965 62.7205 26.4774 61.4818L26.161 61.9721ZM27.5855 67.4657L27.0425 67.2522C25.7136 70.6317 23.5438 73.4726 20.7955 75.891L21.1809 76.3291L21.5664 76.7671C24.428 74.2491 26.7202 71.2609 28.1286 67.6792L27.5855 67.4657ZM21.1809 76.3291L20.7953 75.8912C19.7022 76.8537 18.3576 77.3201 16.7285 77.4333L16.769 78.0154L16.8094 78.5975C18.6239 78.4715 20.2344 77.9401 21.5666 76.767L21.1809 76.3291Z" fill="#F8EDEB" mask="url(#path-2-inside-1_2018_6013)"/>
<mask id="path-4-inside-2_2018_6013" fill="#F8EDEB">
<path d="M107.072 52.0847C106.783 55.2006 106.448 58.5003 106.18 61.8059C105.924 64.9684 105.753 68.1339 105.517 71.2994C105.435 72.4198 105.367 73.5547 105.141 74.6516C104.858 76.0316 103.993 77.0644 102.751 77.75C100.894 78.7712 98.9834 78.3802 97.9709 76.5393C97.3764 75.4598 97.0114 74.1673 96.9025 72.9361C96.5464 68.9333 96.2314 64.9188 96.152 60.9044C96.1137 59.0342 96.6141 57.1466 96.9408 55.2765C97.1233 54.2379 97.5206 53.2372 97.7148 52.1985C98.3035 49.0797 97.1056 46.6319 94.2359 45.1878C93.0998 44.6159 91.8195 44.3125 90.701 43.7086C89.406 43.0084 88.0256 42.2994 87.0219 41.2696C84.576 38.7605 85.7651 35.1778 89.2353 34.5155C90.5303 34.2675 91.9931 34.2179 93.2469 34.5593C95.9106 35.2799 98.5449 36.1814 101.079 37.2696C103.11 38.1391 104.426 39.8633 105.158 41.9522C106.292 45.1732 106.898 48.4933 107.072 52.0877"/>
</mask>
<path d="M106.18 61.8059L105.598 61.7587L105.598 61.7588L106.18 61.8059ZM105.517 71.2994L104.936 71.2561L104.936 71.2566L105.517 71.2994ZM105.141 74.6516L104.569 74.5336L104.569 74.5346L105.141 74.6516ZM102.751 77.75L103.032 78.2613L103.033 78.2609L102.751 77.75ZM97.9709 76.5393L98.4822 76.2581L98.482 76.2578L97.9709 76.5393ZM96.9025 72.9361L97.4837 72.8847L97.4837 72.8844L96.9025 72.9361ZM96.152 60.9044L96.7353 60.8928L96.7353 60.8924L96.152 60.9044ZM96.9408 55.2765L96.3661 55.1755L96.366 55.1761L96.9408 55.2765ZM97.7148 52.1985L97.1415 52.0903L97.1413 52.0913L97.7148 52.1985ZM94.2359 45.1878L93.9736 45.709L93.9736 45.709L94.2359 45.1878ZM90.701 43.7086L90.4235 44.2219L90.4238 44.222L90.701 43.7086ZM87.0219 41.2696L87.4398 40.8623L87.4397 40.8623L87.0219 41.2696ZM89.2353 34.5155L89.3446 35.0887L89.345 35.0886L89.2353 34.5155ZM93.2469 34.5593L93.0937 35.1223L93.0946 35.1225L93.2469 34.5593ZM101.079 37.2696L100.849 37.8058L100.849 37.8061L101.079 37.2696ZM105.158 41.9522L104.608 42.1454L104.608 42.1459L105.158 41.9522ZM107.072 52.0847L106.491 52.031C106.203 55.1396 105.866 58.449 105.598 61.7587L106.18 61.8059L106.761 61.853C107.029 58.5517 107.363 55.2617 107.653 52.1385L107.072 52.0847ZM106.18 61.8059L105.598 61.7588C105.343 64.9152 105.169 68.1151 104.936 71.2561L105.517 71.2994L106.099 71.3427C106.337 68.1528 106.505 65.0216 106.761 61.853L106.18 61.8059ZM105.517 71.2994L104.936 71.2566C104.852 72.3921 104.786 73.4826 104.569 74.5336L105.141 74.6516L105.712 74.7697C105.948 73.6268 106.018 72.4474 106.099 71.3422L105.517 71.2994ZM105.141 74.6516L104.569 74.5346C104.326 75.7204 103.587 76.6219 102.469 77.2392L102.751 77.75L103.033 78.2609C104.399 77.5069 105.39 76.3428 105.712 74.7687L105.141 74.6516ZM102.751 77.75L102.47 77.2387C101.641 77.6945 100.847 77.8102 100.18 77.6505C99.5212 77.4927 98.9184 77.0512 98.4822 76.2581L97.9709 76.5393L97.4596 76.8205C98.0359 77.8683 98.8945 78.5427 99.9082 78.7854C100.913 79.026 102.004 78.8267 103.032 78.2613L102.751 77.75ZM97.9709 76.5393L98.482 76.2578C97.9307 75.2567 97.5863 74.0441 97.4837 72.8847L96.9025 72.9361L96.3213 72.9876C96.4365 74.2905 96.8221 75.6628 97.4598 76.8208L97.9709 76.5393ZM96.9025 72.9361L97.4837 72.8844C97.1278 68.884 96.8144 64.8862 96.7353 60.8928L96.152 60.9044L95.5686 60.9159C95.6485 64.9515 95.9649 68.9826 96.3213 72.9879L96.9025 72.9361ZM96.152 60.9044L96.7353 60.8924C96.6986 59.0977 97.1767 57.3167 97.5156 55.3769L96.9408 55.2765L96.366 55.1761C96.0514 56.9765 95.5288 58.9708 95.5686 60.9163L96.152 60.9044ZM96.9408 55.2765L97.5155 55.3775C97.6006 54.8932 97.7368 54.412 97.8842 53.8986C98.0289 53.3948 98.1852 52.8574 98.2884 52.3058L97.7148 52.1985L97.1413 52.0913C97.0502 52.5783 96.9107 53.0605 96.7626 53.5764C96.6172 54.0826 96.4635 54.6212 96.3661 55.1755L96.9408 55.2765ZM97.7148 52.1985L98.2882 52.3067C98.6014 50.6473 98.4462 49.1229 97.7953 47.8065C97.1444 46.4902 96.0238 45.4343 94.4982 44.6665L94.2359 45.1878L93.9736 45.709C95.3176 46.3854 96.2309 47.2755 96.7492 48.3238C97.2675 49.3721 97.4169 50.631 97.1415 52.0903L97.7148 52.1985ZM94.2359 45.1878L94.4982 44.6666C93.8949 44.3629 93.257 44.1324 92.6644 43.913C92.0596 43.6891 91.4965 43.475 90.9782 43.1952L90.701 43.7086L90.4238 44.222C91.024 44.5461 91.6603 44.7857 92.2593 45.0074C92.8705 45.2337 93.4407 45.4408 93.9736 45.709L94.2359 45.1878ZM90.701 43.7086L90.9785 43.1953C89.6543 42.4793 88.3674 41.8142 87.4398 40.8623L87.0219 41.2696L86.604 41.6768C87.6837 42.7847 89.1576 43.5374 90.4235 44.2219L90.701 43.7086ZM87.0219 41.2696L87.4397 40.8623C86.3542 39.7487 86.1133 38.4489 86.4643 37.3824C86.8163 36.3131 87.7948 35.3845 89.3446 35.0887L89.2353 34.5155L89.1259 33.9424C87.2056 34.3089 85.8544 35.5028 85.3558 37.0176C84.8563 38.5352 85.2437 40.2814 86.6041 41.6769L87.0219 41.2696ZM89.2353 34.5155L89.345 35.0886C90.5862 34.8509 91.9533 34.8119 93.0937 35.1223L93.2469 34.5593L93.4002 33.9963C92.0329 33.624 90.4744 33.6842 89.1255 33.9424L89.2353 34.5155ZM93.2469 34.5593L93.0946 35.1225C95.7337 35.8365 98.3417 36.7292 100.849 37.8058L101.079 37.2696L101.309 36.7335C98.748 35.6336 96.0875 34.7233 93.3993 33.996L93.2469 34.5593ZM101.079 37.2696L100.849 37.8061C102.692 38.5948 103.914 40.1667 104.608 42.1454L105.158 41.9522L105.709 41.7591C104.937 39.5599 103.528 37.6834 101.309 36.7332L101.079 37.2696ZM105.158 41.9522L104.608 42.1459C105.72 45.3076 106.317 48.5713 106.489 52.1158L107.072 52.0877L107.654 52.0595C107.478 48.4153 106.863 45.0387 105.709 41.7586L105.158 41.9522Z" fill="#F8EDEB" mask="url(#path-4-inside-2_2018_6013)"/>
<mask id="path-6-inside-3_2018_6013" fill="#F8EDEB">
<path d="M26.7465 9.33984C28.2976 9.47697 29.9429 9.49447 31.5382 9.79205C35.3703 10.5098 36.5476 13.4944 34.3372 16.7153C33.8987 17.3542 33.3954 17.9523 32.8803 18.5329C30.9318 20.7269 30.2049 23.2768 30.4992 26.1651C30.6493 27.6355 30.8612 29.1235 30.7553 30.5822C30.6728 31.7346 30.3609 32.9833 29.7722 33.9665C28.0386 36.8636 24.1064 36.9336 22.0814 34.2174C21.2014 33.0358 20.8599 31.6675 20.8835 30.2379C20.907 28.8346 21.0336 27.4255 21.1896 26.028C21.4456 23.7086 21.013 21.5525 19.871 19.5132C19.2853 18.4687 18.6848 17.4155 18.2581 16.3039C16.9925 12.9926 18.4847 10.326 21.9872 9.72495C23.5177 9.46238 25.0924 9.46529 26.7377 9.34276"/>
</mask>
<path d="M31.5382 9.79205L31.6456 9.21852L31.6452 9.21845L31.5382 9.79205ZM34.3372 16.7153L34.8183 17.0455L34.8183 17.0455L34.3372 16.7153ZM32.8803 18.5329L33.3166 18.9204L33.3168 18.9201L32.8803 18.5329ZM30.4992 26.1651L29.9187 26.2243L29.9187 26.2244L30.4992 26.1651ZM30.7553 30.5822L30.1733 30.5399L30.1732 30.5406L30.7553 30.5822ZM29.7722 33.9665L29.2716 33.6668L29.2715 33.6669L29.7722 33.9665ZM22.0814 34.2174L21.6134 34.566L21.6136 34.5662L22.0814 34.2174ZM20.8835 30.2379L20.3001 30.2282L20.3001 30.2283L20.8835 30.2379ZM21.1896 26.028L21.7695 26.0927L21.7696 26.092L21.1896 26.028ZM19.871 19.5132L20.3801 19.2281L20.3799 19.2278L19.871 19.5132ZM18.2581 16.3039L17.713 16.5122L17.7133 16.5131L18.2581 16.3039ZM21.9872 9.72495L21.8885 9.14985L21.8885 9.14986L21.9872 9.72495ZM26.7465 9.33984L26.6951 9.92108C28.3092 10.0638 29.8709 10.0746 31.4312 10.3657L31.5382 9.79205L31.6452 9.21845C30.0149 8.91434 28.286 8.89017 26.7979 8.75861L26.7465 9.33984ZM31.5382 9.79205L31.4308 10.3656C33.2212 10.7009 34.2626 11.5369 34.6621 12.5323C35.0631 13.5313 34.892 14.8757 33.8561 16.3851L34.3372 16.7153L34.8183 17.0455C35.9929 15.334 36.3383 13.5756 35.7452 12.0976C35.1506 10.6161 33.6873 9.60091 31.6456 9.21852L31.5382 9.79205ZM34.3372 16.7153L33.8561 16.3851C33.4381 16.9942 32.9536 17.5711 32.4438 18.1457L32.8803 18.5329L33.3168 18.9201C33.8372 18.3336 34.3593 17.7143 34.8183 17.0455L34.3372 16.7153ZM32.8803 18.5329L32.444 18.1454C30.3782 20.4715 29.6092 23.1872 29.9187 26.2243L30.4992 26.1651L31.0797 26.1059C30.8005 23.3663 31.4855 20.9822 33.3166 18.9204L32.8803 18.5329ZM30.4992 26.1651L29.9187 26.2244C30.0724 27.7296 30.2745 29.1467 30.1733 30.5399L30.7553 30.5822L31.3372 30.6245C31.4479 29.1002 31.2262 27.5415 31.0797 26.1058L30.4992 26.1651ZM30.7553 30.5822L30.1732 30.5406C30.0953 31.6298 29.8007 32.783 29.2716 33.6668L29.7722 33.9665L30.2728 34.2663C30.921 33.1836 31.2503 31.8395 31.3373 30.6238L30.7553 30.5822ZM29.7722 33.9665L29.2715 33.6669C27.7677 36.18 24.3453 36.2779 22.5492 33.8687L22.0814 34.2174L21.6136 34.5662C23.8674 37.5893 28.3095 37.5472 30.2729 34.2661L29.7722 33.9665ZM22.0814 34.2174L22.5494 33.8689C21.7611 32.8105 21.445 31.5754 21.4669 30.2476L20.8835 30.2379L20.3001 30.2283C20.2748 31.7596 20.6416 33.2612 21.6134 34.566L22.0814 34.2174ZM20.8835 30.2379L21.4669 30.2477C21.49 28.8714 21.6143 27.4833 21.7695 26.0927L21.1896 26.028L20.6097 25.9632C20.4529 27.3677 20.3241 28.7978 20.3001 30.2282L20.8835 30.2379ZM21.1896 26.028L21.7696 26.092C22.0389 23.6525 21.5819 21.3743 20.3801 19.2281L19.871 19.5132L19.3619 19.7983C20.444 21.7308 20.8524 23.7647 20.6096 25.9639L21.1896 26.028ZM19.871 19.5132L20.3799 19.2278C19.7884 18.173 19.2114 17.159 18.8028 16.0948L18.2581 16.3039L17.7133 16.5131C18.1583 17.672 18.7821 18.7644 19.3621 19.7986L19.871 19.5132ZM18.2581 16.3039L18.8031 16.0956C18.2157 14.5586 18.2961 13.2529 18.8427 12.285C19.3888 11.318 20.462 10.5787 22.0859 10.3L21.9872 9.72495L21.8885 9.14986C20.0099 9.47222 18.5858 10.3667 17.8265 11.7111C17.0678 13.0546 17.0349 14.7379 17.713 16.5122L18.2581 16.3039ZM21.9872 9.72495L22.0859 10.3001C23.5814 10.0435 25.0745 10.0517 26.781 9.92465L26.7377 9.34276L26.6943 8.76087C25.1102 8.87885 23.454 8.88127 21.8885 9.14985L21.9872 9.72495Z" fill="#F8EDEB" mask="url(#path-6-inside-3_2018_6013)"/>
<path d="M92.6995 13.6406C90.86 13.6523 89.2147 13.2992 87.8667 12.0914C85.4738 9.95286 86.0889 6.75819 89.1411 5.74873C90.2066 5.39572 91.3662 5.244 92.4935 5.1594C95.5428 4.92891 98.33 3.99823 100.938 2.42861C102.209 1.66422 103.528 0.923172 104.911 0.39802C107.363 -0.532665 109.703 0.217138 110.945 2.14269C112.208 4.10034 111.981 6.5102 110.106 8.32489C109.164 9.23807 107.987 10.1571 106.757 10.4868C102.365 11.6625 97.9062 12.5874 93.4677 13.5968C93.194 13.6581 92.8997 13.6289 92.6966 13.6406" fill="#F8EDEB"/>
<mask id="path-9-inside-4_2018_6013" fill="#F8EDEB">
<path d="M115.522 73.3765C119.596 73.5107 123.669 78.4033 123.007 82.3741C122.618 84.6993 120.746 86.1727 118.303 86.0735C115.048 85.9451 110.822 82.3536 110.192 79.1852C109.556 75.9877 112.058 73.2627 115.525 73.3765"/>
</mask>
<path d="M123.007 82.3741L123.582 82.4702L123.582 82.4701L123.007 82.3741ZM118.303 86.0735L118.327 85.4904L118.326 85.4904L118.303 86.0735ZM110.192 79.1852L110.764 79.0715L110.764 79.0715L110.192 79.1852ZM115.522 73.3765L115.503 73.9597C117.322 74.0196 119.216 75.1565 120.592 76.8098C121.968 78.464 122.726 80.5136 122.431 82.2781L123.007 82.3741L123.582 82.4701C123.95 80.2638 123.002 77.8817 121.489 76.0634C119.975 74.2441 117.795 72.8676 115.541 72.7933L115.522 73.3765ZM123.007 82.3741L122.431 82.2779C122.094 84.2971 120.493 85.5784 118.327 85.4904L118.303 86.0735L118.28 86.6565C121 86.767 123.143 85.1016 123.582 82.4702L123.007 82.3741ZM118.303 86.0735L118.326 85.4904C116.878 85.4333 115.129 84.5886 113.641 83.3246C112.152 82.0602 111.044 80.4772 110.764 79.0715L110.192 79.1852L109.619 79.299C109.97 81.0617 111.289 82.8586 112.885 84.2141C114.482 85.5701 116.473 86.5853 118.28 86.6565L118.303 86.0735ZM110.192 79.1852L110.764 79.0715C110.211 76.2896 112.365 73.8566 115.506 73.9597L115.525 73.3765L115.544 72.7933C111.751 72.6688 108.901 75.6857 109.619 79.299L110.192 79.1852Z" fill="#F8EDEB" mask="url(#path-9-inside-4_2018_6013)"/>
</svg>
