<svg width="265" height="661" viewBox="0 0 265 661" fill="none" xmlns="http://www.w3.org/2000/svg">
<g clip-path="url(#clip0_2001_10001)">
<path d="M-188.92 511.81C-204.77 510.86 -219.16 513.76 -233.16 518.86C-236.78 520.18 -240.39 521.69 -243.72 523.6C-255.16 530.14 -258.63 539.44 -254.48 551.85C-253.41 555.06 -251.72 558.13 -251.09 561.41C-250.25 565.86 -249.23 570.59 -249.92 574.95C-251.81 586.87 -264.57 591.03 -273.7 583.13C-277.89 579.5 -280.3 574.8 -281.71 569.59C-282.79 565.63 -283.62 561.58 -284.29 557.53C-286.08 546.59 -291.09 537.53 -299.37 530.13C-302.96 526.93 -306.35 523.41 -309.32 519.64C-313.72 514.06 -315.08 507.44 -314.09 500.44C-312.4 488.47 -300.84 483.07 -290.75 489.7C-287.14 492.07 -284.11 495.3 -280.78 498.1C-272.76 504.86 -266.62 505.42 -257.59 500.1C-255.09 498.63 -252.69 496.98 -250.34 495.28C-241.26 488.68 -231.16 485.18 -219.91 484.94C-215.56 484.85 -211.17 484.81 -206.87 484.22C-203.08 483.7 -199.18 482.93 -195.7 481.42C-185.6 477.01 -181.72 468.04 -185.03 457.58C-187.64 449.34 -192 442.14 -198.54 436.43C-207.01 429.03 -216.25 429.88 -223.09 438.77C-225.43 441.81 -227.23 445.3 -229.04 448.71C-234.69 459.33 -243.58 464.9 -255.48 464.68C-262.19 464.56 -269.17 463.97 -275.49 461.93C-287.2 458.14 -298.79 453.73 -309.92 448.5C-329.82 439.15 -338.61 421.55 -334.66 401.03C-332.73 390.99 -326.94 384.09 -319.32 382.76C-311.8 381.45 -304.06 385.99 -299.01 395.16C-296.8 399.17 -295.19 403.51 -293.44 407.75C-290.83 414.07 -287.74 420.05 -282.58 424.71C-277.15 429.61 -270.96 432.53 -263.44 431.76C-251.47 430.54 -244.72 419.57 -249.44 408.55C-250.94 405.06 -253.27 401.84 -255.64 398.82C-261.9 390.82 -268.45 383.06 -274.75 375.09C-281.15 366.99 -288.71 360.34 -297.99 355.76C-308.41 350.61 -316.88 343.35 -323.44 333.68C-329.45 324.83 -336.9 317.23 -345.2 310.45C-351.06 305.66 -356.11 300.18 -359.5 293.3C-363.3 285.56 -364.25 277.57 -361.47 269.36C-359.84 264.56 -357.57 259.98 -355.93 255.19C-354.37 250.65 -352.46 246.01 -352.12 241.3C-351.16 228.09 -362.59 220.09 -374.82 225.06C-377.49 226.15 -380.11 227.52 -382.49 229.14C-389.38 233.83 -397.05 236.11 -405.18 235.24C-422.05 233.43 -432.55 241.19 -441.45 255C-456.87 278.91 -465.04 304.59 -465.77 332.88C-465.91 338.16 -466.43 343.57 -467.77 348.65C-469.88 356.63 -475.04 362.36 -483.32 364.34C-497.13 367.64 -509.46 355.57 -506.03 341.76C-504.85 337 -501.8 332.64 -499.24 328.31C-497.16 324.78 -494.2 321.76 -492.26 318.18C-487.59 309.59 -490.24 301.33 -498.92 296.77C-501.04 295.65 -503.4 294.97 -505.65 294.09C-507.9 293.21 -510.27 292.56 -512.39 291.42C-521.5 286.54 -522.13 276.72 -513.45 271.21C-510.06 269.06 -506.01 267.46 -502.06 266.78C-486.18 264.05 -474.71 255.29 -466.12 242.07C-460.19 232.95 -453.73 224.16 -448 214.92C-438.07 198.92 -439.61 182.66 -447.99 166.58C-450.98 160.84 -455.38 156.42 -461.75 154.37C-472 151.07 -481.29 157.97 -480.56 168.71C-480.29 172.75 -479.2 176.85 -477.79 180.67C-471.88 196.72 -475.38 210.41 -488.49 221.05C-496.9 227.87 -505.74 234.5 -515.27 239.55C-531.5 248.15 -543.94 259.87 -551.72 276.55C-553.25 279.82 -555.22 282.94 -557.41 285.81C-559.44 288.47 -561.78 291.04 -564.43 293.06C-571.14 298.16 -579.37 298.52 -585.45 294.4C-591.52 290.28 -594.68 282.33 -592.09 274.45C-590.4 269.29 -587.8 263.98 -584.23 259.95C-567.51 241.13 -550.58 222.49 -527.65 210.69C-522.76 208.17 -518.08 204.92 -513.98 201.24C-506 194.1 -503.32 184.91 -507.4 174.91C-510.57 167.13 -515.1 159.89 -519.04 152.42C-522.64 145.59 -526.55 138.9 -529.74 131.89C-531.08 128.94 -531.5 125.28 -531.34 121.99C-530.75 109.68 -518.58 102.86 -507.78 108.79C-504.45 110.62 -501.31 113.15 -498.74 115.95C-490.96 124.41 -481.53 128.33 -470.15 127.09C-449.52 124.84 -434.92 134.83 -422.92 150.1C-416.53 158.24 -413.63 167.48 -414.75 177.92C-415.19 182 -415.55 186.14 -415.33 190.22C-414.88 198.57 -410.02 204.65 -403.02 206.3C-396.45 207.85 -389.6 204.56 -385.3 197.72C-382.25 192.87 -380.57 187.49 -381 181.85C-381.65 173.43 -382.42 164.96 -384.1 156.7C-385.78 148.45 -390.64 141.59 -396.82 135.96C-405.93 127.65 -415.19 119.49 -424.68 111.62C-431.48 105.98 -439.57 102.67 -448.16 100.66C-452.63 99.6101 -457.15 98.7401 -461.62 97.6501C-469.3 95.7801 -476.45 92.5601 -481.57 86.4501C-492.82 73.0001 -506 71.5001 -521.24 78.7001C-532.44 83.9901 -544.45 85.2401 -556.69 84.5901C-563.28 84.2401 -569.66 83.11 -575.19 79.0601C-580.22 75.3801 -583.46 70.73 -582.4 64.2601C-581.28 57.42 -577.09 52.6601 -570.4 51.1601C-565.78 50.1301 -560.83 50.3301 -556.03 50.4501C-549.27 50.6301 -542.53 51.5801 -535.77 51.6101C-525.1 51.6601 -515.46 48.0201 -508.57 39.9301C-497.59 27.0501 -484.06 20.1301 -467.34 18.2701C-457.87 17.2101 -449.31 13.0701 -441.22 7.93011C-436.97 5.2301 -432.48 2.60004 -427.74 1.00006C-416.47 -2.80994 -406.69 4.26013 -405.99 16.1801C-405.2 29.7201 -416.32 41.7101 -430.68 42.2401C-435.45 42.4101 -440.29 41.47 -445.06 40.7501C-450.16 39.98 -455.18 39.61 -460.07 41.6301C-465.55 43.9001 -469.76 47.5201 -470.18 53.7501C-470.6 60.1501 -466.53 64.0201 -461.18 66.5301C-458.81 67.6401 -456.17 68.3201 -453.58 68.8201C-450.5 69.4101 -447.35 69.6901 -444.21 69.9301C-431.62 70.8701 -420.68 75.6601 -411.91 84.6701C-400.27 96.6301 -387.06 106.05 -371.71 112.7C-367.37 114.58 -363.43 117.71 -359.79 120.83C-353.8 125.98 -350.81 132.71 -351.14 140.75C-351.17 141.48 -351.11 142.21 -351.2 142.92C-354.31 167.66 -346.8 190.34 -337.34 212.52C-335.11 217.74 -331.71 222.73 -327.86 226.93C-322.25 233.04 -314.57 234.08 -307.94 230.88C-301.35 227.7 -296.93 220.06 -297.98 212.24C-298.51 208.25 -299.71 204.07 -301.7 200.61C-308.18 189.34 -312.15 177.34 -314.59 164.6C-316.04 157.04 -319.01 149.78 -321.16 142.35C-323.48 134.32 -321.98 127.02 -316.55 120.61C-311.03 114.09 -302.35 111.23 -295.04 113.68C-286.57 116.52 -281.94 122.7 -281.15 131.4C-280.74 135.92 -281.16 140.6 -281.76 145.13C-283.28 156.65 -280.89 167.2 -275 177.15C-272.17 181.93 -269.63 186.89 -267.18 191.88C-263.74 198.89 -263.2 206.34 -264.95 213.85C-268.74 230.11 -276.57 243.98 -289.6 254.72C-295.13 259.28 -301.29 262.37 -308.36 263.71C-312.4 264.47 -316.48 265.17 -320.39 266.41C-326.29 268.29 -330.61 272.01 -331.53 278.52C-332.48 285.25 -329.53 290.42 -324 293.87C-320.98 295.75 -317.42 296.83 -314.01 297.97C-311.97 298.65 -309.75 298.88 -307.58 299.09C-290.59 300.73 -278.84 309.82 -271.63 324.89C-264.97 338.81 -256.28 351.13 -245.11 361.8C-239.26 367.38 -235.33 374.34 -232.22 381.79C-230.36 386.24 -228.55 390.8 -225.98 394.85C-222.71 400.01 -217.93 403.42 -211.36 402.2C-205.13 401.05 -202.17 396.42 -200.5 390.76C-200.16 389.6 -199.8 388.43 -199.66 387.23C-198.07 373.9 -191.01 363.92 -180.78 355.73C-177.02 352.72 -173.49 349.35 -170.21 345.82C-163.45 338.56 -161.29 329.85 -163.45 320.24C-166.41 307.08 -171.76 295.11 -180.69 284.72C-187.61 276.67 -194.11 268.23 -200.28 259.59C-205.74 251.95 -212.44 246.66 -221.72 244.63C-225.24 243.86 -228.78 242.77 -232.02 241.23C-240.38 237.26 -243.95 228.91 -239.97 220.59C-233.56 207.17 -222.74 198.43 -208.07 195.62C-197.16 193.53 -189.28 200.48 -188.51 211.71C-188.33 214.35 -188.56 217.03 -188.6 219.69C-188.83 234.9 -182.07 243.25 -167.28 246.07C-164.19 246.66 -161.07 247.16 -158.04 247.97C-147.9 250.67 -142.41 257.01 -141.42 267.46C-141.08 271.05 -141.08 274.76 -141.61 278.31C-143.26 289.38 -141.44 299.99 -138.06 310.47C-136.13 316.45 -134.22 322.45 -132.41 328.47C-128.28 342.28 -131.78 353.74 -143.19 362.67C-147.38 365.95 -151.67 369.1 -155.84 372.41C-162.15 377.42 -167.37 383.41 -171.49 390.36C-178.09 401.51 -177.79 412.4 -170.3 423.02C-168.35 425.79 -166.42 428.58 -164.33 431.24C-158.61 438.54 -155.78 446.86 -155.34 456.07C-155.08 461.39 -154.82 466.7 -154.45 472.01C-153.78 481.52 -149 488.47 -140.63 492.73C-136.13 495.02 -131.35 496.92 -126.49 498.31C-109.29 503.23 -96.6201 513.49 -87.8201 529.08C-84.7801 534.47 -80.8201 539.64 -76.2801 543.81C-69.9201 549.65 -62.0701 552.1 -53.4301 548.76C-39.5301 543.39 -36.9401 527.11 -48.7001 518.01C-52.2801 515.24 -56.7301 513.62 -60.6901 511.31C-64.2201 509.25 -68.08 507.46 -71.0001 504.71C-79.0201 497.16 -76.8701 486.1 -66.7901 481.68C-61.3001 479.27 -55.3601 478.57 -49.7101 480.14C-39.2601 483.05 -28.9701 486.57 -18.7401 490.18C-16.1001 491.11 -13.7301 493.12 -11.5401 494.98C-2.62006 502.55 -0.880066 511.12 -6.16006 521.53C-8.35007 525.84 -11.1101 529.86 -13.2401 534.19C-18.2801 544.41 -16.0001 553.49 -7.28006 558.91C1.34995 564.27 12.2799 562.41 18.4499 553.61C21.5599 549.17 23.6899 543.78 25.1799 538.52C27.6199 529.92 29.2099 521.08 31.0999 512.33C31.5099 510.44 31.7399 508.51 31.8999 506.58C33.0899 492.05 28.3599 483.78 15.2499 477.5C12.6399 476.25 9.83994 475.37 7.26993 474.04C4.05994 472.38 0.679932 470.83 -2.06006 468.55C-10.3401 461.65 -9.62006 451.25 -0.53006 445.49C1.85995 443.97 4.70993 442.77 7.47992 442.35C11.9899 441.68 16.6299 441.46 21.1899 441.6C34.1499 442.02 43.1199 448.17 47.5199 460.62C48.9699 464.72 50.3399 468.9 52.3099 472.76C57.7199 483.39 67.5899 484.88 75.8999 476.37C78.7599 473.44 81.1899 470.08 83.7099 466.84C90.1099 458.61 98.5199 454.87 108.64 457.32C125.76 461.46 142.79 466.05 159.71 470.96C168.05 473.38 174.48 479.02 179.86 485.81C183.31 490.17 186.54 494.76 190.42 498.71C203.97 512.5 222.26 508.47 229.14 490.39C232.62 481.23 233.46 471.87 229.73 462.74C223.39 447.21 220.99 431.16 221.6 414.48C221.97 404.37 219.33 394.86 214.58 385.9C212.2 381.42 210.01 376.82 208.03 372.16C207 369.74 206.29 367.09 206 364.49C204.32 349.4 217.73 339.73 231.69 345.84C237.33 348.31 240.96 352.72 243.51 358.1C247.92 367.39 250.46 377.23 250.93 387.47C251.44 398.58 251.63 409.72 251.58 420.84C251.53 431.47 253.41 441.59 258.75 450.82C265.69 462.81 266.18 474.99 261.01 487.74C257.92 495.35 255.66 503.3 252.63 510.94C246.33 526.84 234.43 535.61 217.47 537.17C211.47 537.72 205.38 537.59 199.35 537.36C189.75 536.99 181.48 533.21 174.77 526.36C170.37 521.87 166.21 517.15 162.12 512.37C140.25 486.81 103.88 484.28 78.9299 506.97C74.8999 510.64 71.8299 515.48 68.7699 520.08C62.4899 529.54 56.4999 539.19 50.4299 548.79C48.8799 551.24 47.2399 553.68 46.1199 556.32C43.7899 561.82 43.7799 567.35 48.2099 571.86C52.6099 576.34 58.0699 576.54 63.6899 574.39C65.2599 573.79 66.7599 572.96 68.1999 572.1C69.6499 571.23 70.9799 570.17 72.3799 569.22C85.7699 560.02 96.1099 561.03 106.72 573.62C112.45 580.42 117.51 587.93 121.98 595.63C128.35 606.61 135.5 616.74 145.27 625.03C149.27 628.42 152.78 632.62 155.71 636.98C159.48 642.58 160.1 648.74 155.76 654.6C152 659.68 145.03 661.85 138.08 659.93C129.85 657.66 122.88 653.02 118.32 645.96C113.11 637.88 109 629.09 104.45 620.59C101.72 615.48 99.2899 610.19 96.3099 605.24C93.6299 600.8 89.6599 597.63 84.6799 595.83C78.9199 593.76 73.5999 594.49 69.1699 598.71C64.5499 603.12 63.0799 608.8 65.5199 614.66C67.0499 618.33 69.8899 621.51 72.3999 624.7C75.0799 628.11 78.5599 630.97 80.8199 634.62C86.5199 643.82 81.9199 653.67 71.2299 655.22C66.9799 655.83 62.5599 655.2 58.2199 655.18C50.2699 655.16 42.2199 654.39 34.3799 655.34C20.8299 656.99 7.84995 655.45 -4.94006 651.12C-21.6601 645.46 -38.4401 639.95 -55.0701 634.04C-59.0801 632.61 -63.1601 630.45 -66.2801 627.61C-75.2401 619.46 -72.1001 606.64 -60.5501 602.98C-54.0201 600.91 -47.5101 601.8 -41.3101 604.05C-34.9601 606.36 -28.8701 609.36 -22.6601 612.07C-12.6901 616.42 -2.84006 621.1 7.30994 624.99C12.1799 626.85 17.5999 627.94 22.8099 628.08C30.9399 628.3 37.3099 623.23 39.2899 616.31C41.0599 610.12 38.4399 603.19 32.0899 598.67C29.3799 596.74 26.1999 595.34 23.0399 594.25C19.6299 593.07 16.0299 592.34 12.4599 591.76C0.689911 589.82 -10.4601 586.04 -21.5801 581.79C-30.7801 578.27 -40.4201 575.64 -50.0801 573.64C-60.6401 571.45 -70.1701 574.68 -78.3201 581.82C-80.8701 584.05 -83.3401 586.41 -86.1301 588.3C-88.9001 590.18 -91.8601 592.04 -95.0101 593.06C-103.17 595.69 -110.97 590.88 -112.29 582.41C-112.8 579.15 -112.33 575.68 -111.94 572.34C-111.58 569.23 -110.61 566.19 -110.11 563.09C-108.2 551.23 -112.04 541.38 -121.68 534.44C-127.91 529.95 -135 526.64 -141.74 522.85C-156.66 514.47 -172.54 510.12 -188.92 511.78" fill="#05385E"/>
<path d="M123.4 196.22C127.13 196.22 130.54 195.92 133.89 196.28C144.69 197.43 150.01 206.15 145.79 216.09C144.11 220.04 141.8 223.9 139.05 227.2C129.01 239.31 128.03 253.28 130.92 267.71C131.91 272.67 134.99 277.49 138.05 281.69C140.85 285.53 145.02 288.34 148.4 291.79C151.93 295.41 155.75 298.91 158.52 303.07C163.64 310.76 162.34 318.38 155.65 324.62C149.57 330.3 141.78 330.63 134.47 325.28C132.15 323.58 130.15 321.42 128.12 319.35C126.26 317.45 124.63 315.33 122.79 313.4C113.04 303.19 105.33 301.98 92.9999 308.74C89.6099 310.6 86.4599 312.98 82.9199 314.48C78.9699 316.16 74.7899 317.73 70.5799 318.26C64.8599 318.98 60.0899 316.43 57.3499 311.2C54.6999 306.13 55.8699 301.06 59.3399 296.97C61.9399 293.91 65.2799 291.29 68.7199 289.17C72.8199 286.65 77.3499 284.81 81.7399 282.78C99.7499 274.45 106.15 259.08 107.47 240.59C107.49 240.35 107.47 240.11 107.46 239.86C107.03 231.87 103.24 226.3 96.7699 224.14C90.6799 222.1 83.7699 224.52 79.1199 231.05C76.3399 234.95 74.4299 239.47 72.1399 243.72C69.3999 248.82 66.9799 254.14 63.8599 259C59.0399 266.49 52.3899 272 44.0099 275.33C37.4599 277.93 30.8199 278.33 24.1299 276.15C19.2999 274.57 14.6399 272.47 9.74991 271.12C6.07991 270.1 2.1199 269.19 -1.61009 269.5C-11.2501 270.31 -15.9501 279.77 -11.3301 288.26C-8.9001 292.71 -5.0101 295.54 -0.490097 297.52C3.71991 299.36 8.0899 300.83 12.2499 302.78C22.7999 307.72 26.4699 314.68 24.9099 326.16C24.5199 329.03 23.9999 331.92 24.0099 334.8C24.0499 344.1 29.5299 350.12 38.8299 349.88C43.9899 349.75 49.2099 347.96 54.2199 346.35C59.4999 344.66 64.4999 342.1 69.7499 340.29C77.8499 337.49 86.2399 336.47 94.7899 337.5C113.36 339.73 124.66 353.83 122.52 372.42C121.23 383.63 117.26 394.11 111.31 403.61C107.36 409.92 102.67 415.88 97.6199 421.35C91.3599 428.14 83.0699 431.67 74.0099 433.14C66.8699 434.3 59.9499 433.53 53.8699 429.22C44.0899 422.3 44.0399 409.59 54.1699 403.22C58.5699 400.46 63.9499 399.23 68.9299 397.43C72.3299 396.2 75.8699 395.33 79.2299 394C81.2299 393.21 83.1299 392.04 84.8499 390.73C91.4999 385.67 93.5799 378.47 90.3399 372.27C87.2699 366.4 80.5699 363.97 72.6699 366.35C68.5299 367.6 64.4999 369.37 60.6299 371.33C52.1299 375.62 43.3199 378.79 33.8699 380.14C33.3899 380.21 32.9199 380.32 32.4399 380.41C15.4399 383.77 12.6999 386.68 10.2899 403.95C10.0199 405.86 9.7599 407.79 9.32991 409.67C6.77991 420.9 -1.55008 425.76 -12.4801 422.06C-16.8001 420.59 -20.9201 418.42 -24.9401 416.22C-46.4301 404.44 -69.4901 402.45 -93.2901 405.09C-100.43 405.88 -106.55 409.39 -112.64 412.94C-116.17 414.99 -119.82 417.15 -123.7 418.24C-134.99 421.39 -144.47 412.47 -141.66 401.06C-140.55 396.57 -137.97 392.04 -134.93 388.49C-127.14 379.37 -116.75 374.69 -104.8 374.98C-96.1501 375.18 -87.5001 376.63 -78.9001 377.83C-68.6101 379.27 -58.4001 381.38 -48.0701 382.51C-42.1101 383.16 -35.9501 382.99 -29.9801 382.28C-16.9001 380.73 -7.91008 371.87 -5.72008 358.94C-3.17007 343.89 -6.33008 330.54 -17.9701 319.94C-21.9001 316.36 -25.8401 312.76 -29.9701 309.42C-41.2001 300.32 -46.5701 288.94 -44.3401 274.34C-42.4901 262.25 -43.1101 250.33 -45.9301 238.35C-49.4501 223.38 -43.7101 211.33 -32.4201 201.59C-28.6601 198.35 -24.3301 196.34 -19.2101 196.38C-9.6201 196.45 -3.36009 203.85 -5.17009 213.23C-5.67009 215.82 -6.78008 218.28 -7.63008 220.8C-8.40009 223.09 -9.41008 225.32 -9.94008 227.66C-12.0301 236.94 -7.3801 244.45 2.0699 245.54C7.69991 246.19 13.8199 245.89 19.2299 244.31C25.8599 242.37 32.3399 239.25 38.2099 235.56C44.9299 231.33 50.9999 226.04 57.1699 220.98C61.1399 217.72 64.2899 213.72 65.4899 208.52C66.5599 203.92 65.5699 199.79 62.1499 196.53C58.5899 193.14 54.2799 193.08 49.9599 194.8C47.7299 195.69 45.6699 197.01 43.5499 198.18C41.4399 199.35 39.4299 200.75 37.2399 201.75C31.8699 204.2 26.4999 204.88 21.6199 200.61C17.1599 196.7 15.8799 190.27 18.6299 183.92C19.8499 181.09 21.6599 178.39 23.6999 176.07C26.0799 173.36 28.8099 170.88 31.7099 168.73C42.5699 160.68 49.8199 150.09 54.4499 137.52C55.6199 134.35 56.7999 131.1 58.5799 128.26C60.6099 125.03 62.9899 121.85 65.8199 119.31C70.0599 115.5 75.2099 114.26 80.6399 116.81C86.1099 119.38 89.7799 123.81 89.4299 129.86C89.1599 134.52 87.3699 139.18 85.7399 143.65C84.4199 147.26 82.1699 150.51 80.6199 154.05C76.4699 163.47 78.2299 172.08 84.8299 179.69C95.0799 191.51 107.51 198.46 123.42 196.22" fill="#05385E"/>
<mask id="path-3-inside-1_2001_10001" fill="white">
<path d="M195.1 206.92C199.38 208.45 203.99 209.4 207.87 211.62C217.55 217.16 227.31 222.41 238 225.78C239.37 226.21 240.67 226.93 241.93 227.63C252.37 233.38 254.89 242.42 248.92 252.63C248.8 252.84 248.7 253.07 248.55 253.25C235.97 268.29 227.6 285.62 220.62 303.79C217.72 311.35 212.19 317.3 205.68 322.16C199.21 326.98 192.37 327.35 186.85 323.36C181.07 319.19 178.77 311.86 180.99 304.6C183.17 297.45 187.76 291.83 192.61 286.4C196.32 282.26 200.53 278.51 203.87 274.1C206.59 270.51 208.94 266.39 210.41 262.15C212.33 256.6 209.77 250.08 205.58 247.24C201.35 244.36 194.98 244.94 190.14 249.07C187.02 251.73 184.37 254.92 181.44 257.79C175.33 263.78 168.46 265.29 163.21 261.87C157.62 258.23 155.42 250.59 158.37 243.04C163.02 231.11 170.6 221.12 180.13 212.66C184.25 209 189.27 207.29 195.12 206.88"/>
</mask>
<path d="M207.87 211.62L208.863 209.884L208.863 209.884L207.87 211.62ZM238 225.78L237.399 227.687L237.401 227.688L238 225.78ZM241.93 227.63L240.959 229.378L240.965 229.382L241.93 227.63ZM248.92 252.63L247.193 251.62L247.188 251.629L247.183 251.638L248.92 252.63ZM248.55 253.25L250.084 254.533L250.086 254.53L248.55 253.25ZM220.62 303.79L218.753 303.073L218.753 303.074L220.62 303.79ZM205.68 322.16L206.875 323.764L206.876 323.763L205.68 322.16ZM186.85 323.36L188.022 321.739L188.02 321.738L186.85 323.36ZM180.99 304.6L182.902 305.185L182.903 305.183L180.99 304.6ZM192.61 286.4L191.12 285.065L191.118 285.068L192.61 286.4ZM203.87 274.1L202.276 272.892L202.276 272.892L203.87 274.1ZM210.41 262.15L212.3 262.805L212.3 262.804L210.41 262.15ZM205.58 247.24L204.454 248.893L204.458 248.896L205.58 247.24ZM190.14 249.07L191.437 250.592L191.438 250.591L190.14 249.07ZM181.44 257.79L180.04 256.361L180.04 256.362L181.44 257.79ZM163.21 261.87L164.302 260.194L164.301 260.194L163.21 261.87ZM158.37 243.04L160.233 243.768L160.233 243.766L158.37 243.04ZM180.13 212.66L181.458 214.156L181.458 214.155L180.13 212.66ZM195.1 206.92L194.427 208.803C196.586 209.575 198.97 210.248 201.017 210.913C203.148 211.606 205.116 212.349 206.877 213.356L207.87 211.62L208.863 209.884C206.744 208.671 204.467 207.829 202.253 207.109C199.955 206.362 197.894 205.795 195.773 205.037L195.1 206.92ZM207.87 211.62L206.876 213.356C216.569 218.903 226.488 224.248 237.399 227.687L238 225.78L238.601 223.873C228.131 220.572 218.53 215.417 208.863 209.884L207.87 211.62ZM238 225.78L237.401 227.688C238.544 228.047 239.667 228.661 240.959 229.378L241.93 227.63L242.901 225.882C241.673 225.199 240.196 224.373 238.599 223.872L238 225.78ZM241.93 227.63L240.965 229.382C245.866 232.081 248.649 235.403 249.652 238.996C250.655 242.585 249.991 246.837 247.193 251.62L248.92 252.63L250.646 253.64C253.819 248.213 254.879 242.84 253.505 237.919C252.131 233.002 248.434 228.929 242.895 225.878L241.93 227.63ZM248.92 252.63L247.183 251.638C247.136 251.72 247.095 251.798 247.066 251.853C247.032 251.916 247.015 251.95 246.996 251.983C246.958 252.052 246.968 252.025 247.013 251.97L248.55 253.25L250.086 254.53C250.282 254.295 250.417 254.063 250.496 253.919C250.637 253.665 250.577 253.761 250.656 253.622L248.92 252.63ZM248.55 253.25L247.016 251.967C234.233 267.25 225.768 284.812 218.753 303.073L220.62 303.79L222.487 304.507C229.432 286.428 237.707 269.33 250.084 254.533L248.55 253.25ZM220.62 303.79L218.753 303.074C216.035 310.159 210.816 315.83 204.483 320.557L205.68 322.16L206.876 323.763C213.564 318.77 219.405 312.541 222.487 304.506L220.62 303.79ZM205.68 322.16L204.485 320.556C198.567 324.965 192.695 325.117 188.022 321.739L186.85 323.36L185.678 324.981C192.045 329.583 199.852 328.995 206.875 323.764L205.68 322.16ZM186.85 323.36L188.02 321.738C182.99 318.109 180.912 311.694 182.902 305.185L180.99 304.6L179.077 304.015C176.628 312.026 179.149 320.271 185.68 324.982L186.85 323.36ZM180.99 304.6L182.903 305.183C184.944 298.489 189.26 293.153 194.102 287.732L192.61 286.4L191.118 285.068C186.26 290.507 181.396 296.411 179.077 304.017L180.99 304.6ZM192.61 286.4L194.099 287.735C195.922 285.701 197.847 283.785 199.819 281.739C201.765 279.72 203.72 277.611 205.464 275.307L203.87 274.1L202.276 272.892C200.68 274.999 198.86 276.97 196.939 278.963C195.043 280.93 193.008 282.959 191.12 285.065L192.61 286.4ZM203.87 274.1L205.464 275.308C208.287 271.582 210.749 267.278 212.3 262.805L210.41 262.15L208.52 261.495C207.131 265.502 204.893 269.438 202.276 272.892L203.87 274.1ZM210.41 262.15L212.3 262.804C214.528 256.364 211.61 248.911 206.702 245.584L205.58 247.24L204.458 248.896C207.93 251.249 210.132 256.836 208.52 261.496L210.41 262.15ZM205.58 247.24L206.705 245.587C201.581 242.098 194.22 242.959 188.842 247.549L190.14 249.07L191.438 250.591C195.74 246.921 201.118 246.622 204.454 248.893L205.58 247.24ZM190.14 249.07L188.842 247.548C187.201 248.948 185.7 250.472 184.271 251.971C182.82 253.493 181.473 254.958 180.04 256.361L181.44 257.79L182.839 259.219C184.337 257.752 185.779 256.187 187.167 254.731C188.575 253.253 189.959 251.852 191.437 250.592L190.14 249.07ZM181.44 257.79L180.04 256.362C174.285 262.003 168.448 262.895 164.302 260.194L163.21 261.87L162.118 263.546C168.472 267.685 176.375 265.557 182.84 259.218L181.44 257.79ZM163.21 261.87L164.301 260.194C159.647 257.163 157.562 250.602 160.233 243.768L158.37 243.04L156.507 242.312C153.277 250.578 155.593 259.297 162.119 263.546L163.21 261.87ZM158.37 243.04L160.233 243.766C164.749 232.181 172.121 222.444 181.458 214.156L180.13 212.66L178.802 211.164C169.078 219.796 161.291 230.039 156.506 242.314L158.37 243.04ZM180.13 212.66L181.458 214.155C185.169 210.859 189.731 209.263 195.26 208.875L195.12 206.88L194.98 204.885C188.809 205.317 183.331 207.141 178.802 211.165L180.13 212.66Z" fill="#05385E" mask="url(#path-3-inside-1_2001_10001)"/>
<mask id="path-5-inside-2_2001_10001" fill="white">
<path d="M161.22 442.27C155.95 441.8 150.36 441.74 144.94 440.72C131.92 438.26 127.92 428.03 135.43 416.99C136.92 414.8 138.63 412.75 140.38 410.76C147 403.24 149.47 394.5 148.47 384.6C147.96 379.56 147.24 374.46 147.6 369.46C147.88 365.51 148.94 361.23 150.94 357.86C156.83 347.93 170.19 347.69 177.07 357C180.06 361.05 181.22 365.74 181.14 370.64C181.06 375.45 180.63 380.28 180.1 385.07C179.23 393.02 180.7 400.41 184.58 407.4C186.57 410.98 188.61 414.59 190.06 418.4C194.36 429.75 189.29 438.89 177.39 440.95C172.19 441.85 166.84 441.84 161.25 442.26"/>
</mask>
<path d="M144.94 440.72L144.569 442.685L144.57 442.686L144.94 440.72ZM135.43 416.99L133.776 415.865L133.776 415.865L135.43 416.99ZM140.38 410.76L138.879 409.439L138.878 409.439L140.38 410.76ZM148.47 384.6L150.46 384.399L150.46 384.399L148.47 384.6ZM147.6 369.46L149.595 369.604L149.595 369.602L147.6 369.46ZM150.94 357.86L152.66 358.881L152.66 358.88L150.94 357.86ZM177.07 357L178.679 355.812L178.678 355.812L177.07 357ZM181.14 370.64L183.14 370.673L183.14 370.673L181.14 370.64ZM180.1 385.07L178.112 384.85L178.112 384.853L180.1 385.07ZM184.58 407.4L182.831 408.371L182.832 408.372L184.58 407.4ZM190.06 418.4L191.93 417.692L191.929 417.689L190.06 418.4ZM177.39 440.95L177.731 442.921L177.731 442.921L177.39 440.95ZM161.22 442.27L161.398 440.278C155.91 439.789 150.609 439.752 145.31 438.755L144.94 440.72L144.57 442.686C150.111 443.728 155.99 443.812 161.042 444.262L161.22 442.27ZM144.94 440.72L145.311 438.755C139.239 437.608 135.703 434.748 134.345 431.333C132.98 427.902 133.564 423.289 137.084 418.115L135.43 416.99L133.776 415.865C129.786 421.732 128.615 427.753 130.628 432.812C132.647 437.888 137.621 441.373 144.569 442.685L144.94 440.72ZM135.43 416.99L137.084 418.115C138.504 416.027 140.15 414.05 141.882 412.081L140.38 410.76L138.878 409.439C137.11 411.45 135.336 413.573 133.776 415.865L135.43 416.99ZM140.38 410.76L141.881 412.082C148.9 404.108 151.511 394.803 150.46 384.399L148.47 384.6L146.48 384.801C147.429 394.197 145.1 402.372 138.879 409.439L140.38 410.76ZM148.47 384.6L150.46 384.399C149.938 379.241 149.251 374.381 149.595 369.604L147.6 369.46L145.605 369.317C145.229 374.539 145.982 379.88 146.48 384.802L148.47 384.6ZM147.6 369.46L149.595 369.602C149.86 365.866 150.862 361.911 152.66 358.881L150.94 357.86L149.22 356.839C147.018 360.549 145.9 365.154 145.605 369.319L147.6 369.46ZM150.94 357.86L152.66 358.88C157.765 350.274 169.366 349.941 175.461 358.189L177.07 357L178.678 355.812C171.014 345.439 155.895 345.586 149.22 356.84L150.94 357.86ZM177.07 357L175.461 358.188C178.14 361.816 179.215 366.052 179.14 370.607L181.14 370.64L183.14 370.673C183.225 365.428 181.98 360.284 178.679 355.812L177.07 357ZM181.14 370.64L179.14 370.607C179.062 375.325 178.639 380.084 178.112 384.85L180.1 385.07L182.088 385.29C182.62 380.477 183.058 375.575 183.14 370.673L181.14 370.64ZM180.1 385.07L178.112 384.853C177.197 393.21 178.749 401.016 182.831 408.371L184.58 407.4L186.329 406.429C182.651 399.804 181.263 392.83 182.088 385.288L180.1 385.07ZM184.58 407.4L182.832 408.372C184.841 411.987 186.802 415.463 188.191 419.112L190.06 418.4L191.929 417.689C190.418 413.717 188.298 409.973 186.328 406.428L184.58 407.4ZM190.06 418.4L188.19 419.109C190.187 424.38 189.914 428.861 188.055 432.182C186.199 435.497 182.556 438.026 177.049 438.979L177.39 440.95L177.731 442.921C184.124 441.814 188.966 438.744 191.545 434.136C194.121 429.534 194.233 423.77 191.93 417.692L190.06 418.4ZM177.39 440.95L177.049 438.979C171.97 439.859 166.902 439.83 161.1 440.266L161.25 442.26L161.4 444.255C166.778 443.85 172.41 443.842 177.731 442.921L177.39 440.95Z" fill="#05385E" mask="url(#path-5-inside-2_2001_10001)"/>
</g>
<defs>
<clipPath id="clip0_2001_10001">
<rect width="857.46" height="660.65" fill="white" transform="matrix(-1 0 0 -1 264.46 660.65)"/>
</clipPath>
</defs>
</svg>
